<svg width="418" height="659" viewBox="0 0 418 659" fill="none" xmlns="http://www.w3.org/2000/svg">
<g id="Group 38">
<g id="Group 2 Copy 3">
<g id="iPhone-X-Mockup">
<g id="phone">
<g id="body" filter="url(#filter0_d_0_4933)">
<path fill-rule="evenodd" clip-rule="evenodd" d="M88.2082 55H279.441C297.782 55 312.649 69.2353 312.649 86.7955V522.066C312.649 539.626 297.782 553.861 279.441 553.861H88.2082C69.8678 553.861 55 539.626 55 522.066V86.7955C55 69.2353 69.8678 55 88.2082 55Z" fill="#213648"/>
</g>
<g id="frame">
<path id="reflect-frame-top" opacity="0.595562" fill-rule="evenodd" clip-rule="evenodd" d="M280.181 54.4305H87.3547C78.3522 54.9795 70.0495 59.0875 62.4468 66.7545C67.3362 62.4864 76.057 56.7751 87.5868 56.7751C87.5868 56.7751 272.262 56.7751 279.949 56.7751C291.478 56.7751 300.199 62.4864 305.089 66.7545C297.486 59.0875 289.183 54.9795 280.181 54.4305Z" fill="url(#paint0_linear_0_4933)" fill-opacity="0.65"/>
<path id="reflect-frame-right" opacity="0.75" fill-rule="evenodd" clip-rule="evenodd" d="M307.432 517.101V89.4123C307.432 77.937 303.214 73.6949 300.698 70.971C298.182 68.2471 298.075 66.8577 301.69 68.9144C305.305 70.971 312.536 76.9611 312.536 89.4123V517.101C312.536 529.553 305.305 535.543 301.69 537.599C298.075 539.656 298.182 538.267 300.698 535.543C303.214 532.819 307.432 528.577 307.432 517.101Z" fill="url(#paint1_linear_0_4933)"/>
<path id="reflect-frame-left" opacity="0.75" fill-rule="evenodd" clip-rule="evenodd" d="M60.1041 517.101V89.4123C60.1041 77.937 64.3215 73.6949 66.8374 70.971C69.3534 68.2471 69.4605 66.8577 65.8455 68.9144C62.2306 70.971 55.0001 76.9611 55.0001 89.4123V517.101C55.0001 529.553 62.2306 535.543 65.8455 537.599C69.4605 539.656 69.3534 538.267 66.8374 535.543C64.3215 532.819 60.1041 528.577 60.1041 517.101Z" fill="url(#paint2_linear_0_4933)"/>
</g>
<g id="controls">
<path id="vol+" fill-rule="evenodd" clip-rule="evenodd" d="M52.4321 157.987C52.4321 156.882 53.3276 155.987 54.4321 155.987H55.3967C56.5012 155.987 57.3967 156.882 57.3967 157.987V218.338C57.3967 219.442 56.5012 220.338 55.3967 220.338H54.4321C53.3276 220.338 52.4321 219.442 52.4321 218.338V157.987Z" fill="#2E423C"/>
<path id="power" fill-rule="evenodd" clip-rule="evenodd" d="M309.968 210.474C309.968 209.369 310.863 208.474 311.968 208.474H312.932C314.037 208.474 314.932 209.369 314.932 210.474V253.424C314.932 254.528 314.037 255.424 312.932 255.424H311.968C310.863 255.424 309.968 254.528 309.968 253.424V210.474Z" fill="#2E423C"/>
</g>
</g>
<g id="Screen">
<path id="Screen Mask" fill-rule="evenodd" clip-rule="evenodd" d="M161.108 66.875L86.7019 66.875C75.5975 66.875 67.5063 74.4383 67.5063 84.3164V506.706C67.5063 519.586 80.0086 530.998 94.1455 530.998H273.479C287.096 530.998 300.118 519.497 300.118 506.706V85.4582C300.118 73.6185 291.328 66.9454 280.922 66.875L205.336 66.875C205.05 66.9219 199.858 69.0567 197.663 74.4383C195.469 79.8198 191.053 84.1098 186.219 84.1098H180.604C178.306 84.1098 172.256 81.8802 169.192 74.4383C166.129 66.9964 161.395 66.9219 161.108 66.875Z" fill="#36536B"/>
<mask id="mask0_0_4933" style="mask-type:luminance" maskUnits="userSpaceOnUse" x="67" y="66" width="234" height="465">
<path id="Screen Mask_2" fill-rule="evenodd" clip-rule="evenodd" d="M161.108 66.875L86.7019 66.875C75.5975 66.875 67.5063 74.4383 67.5063 84.3164V506.706C67.5063 519.586 80.0086 530.998 94.1455 530.998H273.479C287.096 530.998 300.118 519.497 300.118 506.706V85.4582C300.118 73.6185 291.328 66.9454 280.922 66.875L205.336 66.875C205.05 66.9219 199.858 69.0567 197.663 74.4383C195.469 79.8198 191.053 84.1098 186.219 84.1098H180.604C178.306 84.1098 172.256 81.8802 169.192 74.4383C166.129 66.9964 161.395 66.9219 161.108 66.875Z" fill="white"/>
</mask>
<g mask="url(#mask0_0_4933)">
</g>
</g>
</g>
</g>
<g id="Group 39">
<g id="Group 33">
<g id="Group 34">
<g id="Rectangle" filter="url(#filter1_d_0_4933)">
<rect x="95.4321" y="196.431" width="176" height="191" rx="5" fill="#FBFCFE"/>
</g>
<g id="Group 32" clip-path="url(#clip0_0_4933)">
<path id="Payment of $9204 is" d="M129.03 314.431V305.032H132.208C132.88 305.032 133.478 305.144 134.002 305.37C134.526 305.595 134.938 305.929 135.237 306.371C135.54 306.813 135.692 307.356 135.692 308.002C135.692 308.626 135.551 309.159 135.27 309.601C134.992 310.043 134.604 310.379 134.106 310.609C133.608 310.838 133.029 310.953 132.371 310.953H130.265V314.431H129.03ZM130.258 309.939H132.345C132.99 309.939 133.515 309.759 133.918 309.4C134.321 309.04 134.522 308.55 134.522 307.931C134.522 307.307 134.314 306.834 133.898 306.514C133.482 306.193 132.945 306.033 132.286 306.033H130.258V309.939ZM138.692 314.561C138.259 314.561 137.875 314.485 137.541 314.333C137.208 314.177 136.946 313.954 136.755 313.664C136.569 313.373 136.475 313.022 136.475 312.611C136.475 311.865 136.735 311.311 137.255 310.947C137.775 310.583 138.61 310.388 139.758 310.362L140.96 310.329V309.803C140.96 309.391 140.837 309.066 140.59 308.828C140.343 308.585 139.959 308.464 139.439 308.464C139.054 308.468 138.714 308.559 138.419 308.737C138.129 308.914 137.94 309.205 137.853 309.608H136.794C136.82 309.17 136.943 308.802 137.164 308.503C137.385 308.199 137.693 307.97 138.087 307.814C138.486 307.658 138.956 307.58 139.498 307.58C140.083 307.58 140.568 307.662 140.954 307.827C141.344 307.991 141.634 308.234 141.825 308.555C142.02 308.875 142.117 309.27 142.117 309.738V314.431H141.09L141.006 313.17C140.746 313.694 140.414 314.058 140.011 314.262C139.613 314.461 139.173 314.561 138.692 314.561ZM139.056 313.696C139.281 313.696 139.504 313.655 139.725 313.573C139.951 313.49 140.157 313.38 140.343 313.241C140.529 313.098 140.677 312.94 140.785 312.767C140.898 312.589 140.956 312.407 140.96 312.221V311.07L139.959 311.09C139.448 311.098 139.019 311.15 138.672 311.246C138.33 311.341 138.072 311.49 137.899 311.694C137.73 311.898 137.645 312.164 137.645 312.494C137.645 312.871 137.775 313.165 138.035 313.378C138.3 313.59 138.64 313.696 139.056 313.696ZM144.518 316.576C144.124 316.576 143.853 316.547 143.706 316.491C143.558 316.435 143.485 316.407 143.485 316.407V315.627L144.167 315.64C144.418 315.648 144.626 315.631 144.791 315.588C144.956 315.544 145.088 315.486 145.188 315.412C145.287 315.338 145.363 315.256 145.415 315.165C145.471 315.074 145.517 314.987 145.552 314.905L145.786 314.268L143.16 307.71H144.375L146.358 312.897L148.327 307.71H149.504L146.67 314.938C146.496 315.362 146.301 315.694 146.085 315.932C145.872 316.17 145.634 316.337 145.37 316.433C145.11 316.528 144.826 316.576 144.518 316.576ZM150.687 314.431V307.71H151.844V308.685C152.03 308.39 152.286 308.132 152.611 307.911C152.936 307.69 153.358 307.58 153.878 307.58C154.121 307.58 154.368 307.621 154.619 307.703C154.875 307.785 155.109 307.909 155.321 308.074C155.534 308.238 155.698 308.44 155.815 308.678C156.023 308.349 156.305 308.084 156.66 307.885C157.016 307.681 157.416 307.58 157.863 307.58C158.097 307.58 158.342 307.616 158.597 307.69C158.853 307.759 159.089 307.885 159.306 308.067C159.527 308.245 159.707 308.494 159.845 308.815C159.984 309.131 160.053 309.538 160.053 310.037V314.431H158.844V310.154C158.844 309.746 158.779 309.432 158.649 309.211C158.519 308.986 158.348 308.828 158.136 308.737C157.928 308.646 157.705 308.6 157.466 308.6C157.258 308.6 157.037 308.641 156.803 308.724C156.569 308.806 156.37 308.945 156.205 309.14C156.041 309.335 155.958 309.601 155.958 309.939V314.431H154.762V309.803C154.762 309.538 154.691 309.317 154.548 309.14C154.409 308.962 154.234 308.828 154.021 308.737C153.813 308.646 153.605 308.6 153.397 308.6C153.168 308.6 152.936 308.646 152.702 308.737C152.472 308.828 152.277 308.973 152.117 309.172C151.961 309.367 151.883 309.623 151.883 309.939V314.431H150.687ZM162.693 311.35C162.693 311.774 162.762 312.16 162.901 312.507C163.044 312.849 163.258 313.122 163.544 313.326C163.835 313.529 164.196 313.631 164.63 313.631C165.059 313.631 165.427 313.531 165.735 313.332C166.047 313.133 166.246 312.845 166.333 312.468H167.47C167.388 312.923 167.206 313.306 166.924 313.618C166.643 313.93 166.302 314.166 165.904 314.327C165.505 314.483 165.089 314.561 164.656 314.561C164.027 314.561 163.475 314.424 162.998 314.151C162.522 313.878 162.149 313.486 161.88 312.975C161.612 312.463 161.477 311.85 161.477 311.135C161.477 310.429 161.599 309.809 161.841 309.276C162.084 308.743 162.435 308.327 162.894 308.028C163.358 307.729 163.915 307.58 164.565 307.58C165.197 307.58 165.733 307.716 166.17 307.989C166.608 308.262 166.939 308.648 167.165 309.146C167.394 309.64 167.509 310.227 167.509 310.908V311.35H162.693ZM162.699 310.537H166.352C166.352 310.151 166.287 309.805 166.157 309.497C166.027 309.185 165.828 308.94 165.559 308.763C165.295 308.581 164.961 308.49 164.558 308.49C164.138 308.49 163.789 308.591 163.512 308.795C163.239 308.994 163.033 309.252 162.894 309.569C162.76 309.881 162.695 310.203 162.699 310.537ZM169.06 314.431V307.71H170.223V308.685C170.332 308.498 170.481 308.323 170.672 308.158C170.867 307.993 171.101 307.861 171.374 307.762C171.651 307.662 171.97 307.612 172.329 307.612C172.754 307.612 173.144 307.697 173.499 307.866C173.859 308.035 174.145 308.299 174.357 308.659C174.574 309.014 174.682 309.473 174.682 310.037V314.431H173.48V310.154C173.48 309.629 173.341 309.241 173.064 308.99C172.791 308.734 172.436 308.607 171.998 308.607C171.695 308.607 171.411 308.656 171.146 308.756C170.882 308.851 170.668 308.999 170.503 309.198C170.338 309.393 170.256 309.64 170.256 309.939V314.431H169.06ZM179.56 308.587H178.046V312.767C178.046 313.005 178.069 313.18 178.117 313.293C178.169 313.401 178.254 313.471 178.371 313.501C178.492 313.531 178.657 313.547 178.865 313.547H179.599V314.353C179.517 314.383 179.391 314.409 179.222 314.431C179.057 314.452 178.852 314.463 178.605 314.463C178.141 314.463 177.781 314.4 177.526 314.275C177.27 314.149 177.09 313.963 176.986 313.716C176.886 313.469 176.837 313.165 176.837 312.806V308.587H175.745V307.71H176.869L177.162 305.753H178.046V307.703H179.56V308.587ZM186.59 314.561C185.97 314.561 185.428 314.428 184.965 314.164C184.501 313.895 184.141 313.503 183.886 312.988C183.63 312.472 183.502 311.841 183.502 311.096C183.502 310.394 183.621 309.779 183.86 309.25C184.098 308.721 184.447 308.312 184.906 308.022C185.37 307.727 185.931 307.58 186.59 307.58C187.209 307.58 187.747 307.716 188.202 307.989C188.661 308.258 189.016 308.654 189.268 309.179C189.519 309.703 189.645 310.342 189.645 311.096C189.645 311.781 189.528 312.383 189.294 312.903C189.064 313.423 188.722 313.83 188.267 314.125C187.816 314.415 187.257 314.561 186.59 314.561ZM186.59 313.612C186.993 313.612 187.333 313.51 187.61 313.306C187.887 313.102 188.098 312.81 188.241 312.429C188.384 312.047 188.455 311.594 188.455 311.07C188.455 310.589 188.392 310.158 188.267 309.777C188.141 309.391 187.939 309.085 187.662 308.86C187.389 308.635 187.032 308.522 186.59 308.522C186.182 308.522 185.838 308.624 185.556 308.828C185.274 309.027 185.06 309.317 184.913 309.699C184.77 310.08 184.698 310.537 184.698 311.07C184.698 311.542 184.763 311.971 184.893 312.357C185.023 312.743 185.227 313.048 185.504 313.274C185.781 313.499 186.143 313.612 186.59 313.612ZM194.66 307.71V308.587H193.029V314.431H191.82V308.587H190.403V307.71H191.82V306.67C191.82 306.137 191.956 305.731 192.229 305.454C192.502 305.172 192.909 305.032 193.451 305.032H194.719L194.725 305.883H193.718C193.445 305.883 193.258 305.957 193.159 306.104C193.059 306.251 193.009 306.475 193.009 306.774V307.71H194.66ZM202.542 314.561C201.416 314.561 200.501 314.335 199.799 313.885C199.097 313.43 198.694 312.73 198.59 311.785L200.566 311.746C200.67 312.175 200.894 312.502 201.236 312.728C201.583 312.949 202.016 313.059 202.536 313.059C202.848 313.059 203.123 313.009 203.361 312.91C203.604 312.806 203.795 312.667 203.933 312.494C204.072 312.316 204.141 312.114 204.141 311.889C204.141 311.542 204.031 311.285 203.81 311.116C203.589 310.942 203.249 310.804 202.789 310.7L201.249 310.368C200.534 310.225 199.96 309.941 199.526 309.517C199.097 309.088 198.879 308.513 198.87 307.794C198.866 307.205 199.024 306.696 199.344 306.267C199.669 305.833 200.109 305.5 200.664 305.266C201.223 305.032 201.849 304.915 202.542 304.915C203.253 304.915 203.866 305.042 204.382 305.298C204.902 305.549 205.301 305.89 205.578 306.319C205.86 306.743 205.996 307.213 205.987 307.729L204.07 307.762C204.009 307.346 203.871 307.018 203.654 306.78C203.437 306.542 203.078 306.423 202.575 306.423C202.315 306.423 202.083 306.451 201.879 306.507C201.676 306.563 201.5 306.644 201.353 306.748C201.206 306.847 201.093 306.966 201.015 307.105C200.941 307.244 200.904 307.4 200.904 307.573C200.904 307.846 200.995 308.063 201.177 308.223C201.364 308.379 201.713 308.524 202.224 308.659L203.738 309.029C204.592 309.233 205.207 309.582 205.584 310.076C205.966 310.57 206.156 311.17 206.156 311.876C206.156 312.418 206.007 312.89 205.708 313.293C205.413 313.696 204.995 314.008 204.453 314.229C203.912 314.45 203.275 314.561 202.542 314.561ZM201.73 303.686H203.374V305.376H201.73V303.686ZM201.697 313.982H203.335V315.672H201.697V313.982ZM210.719 314.574C210.134 314.574 209.588 314.461 209.081 314.236C208.574 314.01 208.16 313.694 207.84 313.287C207.519 312.875 207.339 312.394 207.3 311.844H209.107C209.185 312.208 209.358 312.504 209.627 312.734C209.896 312.959 210.234 313.072 210.641 313.072C211.092 313.072 211.486 312.966 211.824 312.754C212.166 312.541 212.422 312.203 212.591 311.74C212.764 311.276 212.825 310.669 212.773 309.92C212.652 310.149 212.483 310.351 212.266 310.524C212.054 310.693 211.805 310.825 211.519 310.921C211.233 311.012 210.914 311.057 210.563 311.057C209.926 311.057 209.361 310.938 208.867 310.7C208.377 310.457 207.991 310.115 207.71 309.673C207.432 309.226 207.294 308.698 207.294 308.087C207.294 307.471 207.441 306.923 207.736 306.442C208.03 305.961 208.442 305.584 208.971 305.311C209.499 305.038 210.119 304.902 210.83 304.902C211.627 304.902 212.314 305.092 212.89 305.474C213.471 305.851 213.915 306.388 214.223 307.086C214.535 307.779 214.691 308.596 214.691 309.536C214.691 310.658 214.53 311.594 214.21 312.344C213.893 313.089 213.438 313.648 212.845 314.021C212.251 314.389 211.542 314.574 210.719 314.574ZM210.888 309.549C211.152 309.549 211.408 309.491 211.655 309.374C211.906 309.252 212.112 309.101 212.273 308.919C212.433 308.737 212.513 308.548 212.513 308.353C212.517 307.933 212.45 307.573 212.312 307.274C212.177 306.971 211.987 306.739 211.74 306.579C211.497 306.418 211.213 306.338 210.888 306.338C210.589 306.338 210.323 306.407 210.089 306.546C209.855 306.685 209.67 306.88 209.536 307.131C209.402 307.382 209.335 307.673 209.335 308.002C209.335 308.492 209.478 308.873 209.764 309.146C210.05 309.415 210.424 309.549 210.888 309.549ZM215.899 314.431V313.495V313.014C215.899 312.537 215.988 312.125 216.166 311.779C216.344 311.428 216.578 311.124 216.868 310.869C217.163 310.609 217.483 310.381 217.83 310.186C218.181 309.991 218.532 309.807 218.883 309.634C219.234 309.46 219.555 309.287 219.845 309.114C220.14 308.936 220.376 308.739 220.553 308.522C220.731 308.305 220.82 308.05 220.82 307.755C220.82 307.378 220.688 307.07 220.423 306.832C220.163 306.594 219.806 306.475 219.351 306.475C218.879 306.475 218.478 306.611 218.148 306.884C217.819 307.157 217.615 307.569 217.537 308.119H215.724C215.733 307.521 215.871 306.979 216.14 306.494C216.413 306.004 216.82 305.617 217.362 305.331C217.904 305.045 218.584 304.902 219.403 304.902C220.105 304.902 220.709 305.021 221.216 305.259C221.728 305.497 222.122 305.829 222.399 306.254C222.677 306.678 222.815 307.174 222.815 307.742C222.815 308.214 222.729 308.622 222.555 308.964C222.382 309.306 222.152 309.599 221.866 309.842C221.58 310.084 221.266 310.297 220.924 310.479C220.582 310.661 220.239 310.83 219.897 310.986C219.559 311.142 219.247 311.302 218.961 311.467C218.675 311.627 218.445 311.809 218.272 312.013C218.099 312.216 218.012 312.461 218.012 312.747V312.832H222.802V314.431H215.899ZM227.516 304.902C228.634 304.902 229.516 305.32 230.161 306.156C230.807 306.988 231.13 308.186 231.13 309.751C231.13 311.306 230.811 312.5 230.174 313.332C229.537 314.16 228.651 314.574 227.516 314.574C226.376 314.574 225.486 314.16 224.844 313.332C224.207 312.504 223.889 311.313 223.889 309.757C223.889 308.717 224.036 307.835 224.331 307.112C224.625 306.388 225.044 305.84 225.585 305.467C226.127 305.09 226.77 304.902 227.516 304.902ZM227.516 313.02C228.075 313.02 228.484 312.771 228.744 312.273C229.004 311.77 229.134 310.931 229.134 309.757C229.134 308.557 229.002 307.697 228.738 307.177C228.473 306.657 228.064 306.397 227.509 306.397C226.955 306.397 226.541 306.659 226.268 307.183C225.999 307.707 225.865 308.565 225.865 309.757C225.865 310.927 225.999 311.763 226.268 312.266C226.536 312.769 226.952 313.02 227.516 313.02ZM236.387 305.032H238.253V310.758H239.702V312.351H238.253V314.431H236.426L236.433 312.351H232.104V310.791L236.387 305.032ZM233.859 310.758H236.433V307.313L233.859 310.758ZM135.738 325.71V332.431H134.574V325.71H135.738ZM135.764 323.038V324.286H134.535V323.038H135.764ZM140.138 332.561C139.67 332.561 139.235 332.489 138.832 332.346C138.433 332.199 138.101 331.971 137.837 331.664C137.573 331.352 137.406 330.955 137.337 330.474H138.429C138.489 330.738 138.598 330.959 138.754 331.137C138.914 331.31 139.113 331.443 139.352 331.534C139.59 331.62 139.85 331.664 140.132 331.664C140.582 331.664 140.946 331.579 141.224 331.41C141.501 331.241 141.64 330.981 141.64 330.63C141.64 330.383 141.566 330.186 141.419 330.039C141.276 329.887 141.052 329.776 140.749 329.707L139.358 329.363C138.816 329.233 138.383 329.029 138.058 328.752C137.733 328.474 137.571 328.086 137.571 327.588C137.566 327.194 137.659 326.847 137.85 326.548C138.041 326.249 138.327 326.013 138.708 325.84C139.089 325.666 139.564 325.58 140.132 325.58C140.86 325.58 141.447 325.744 141.893 326.074C142.344 326.399 142.578 326.877 142.595 327.51H141.536C141.492 327.189 141.347 326.936 141.1 326.75C140.857 326.559 140.53 326.464 140.119 326.464C139.69 326.464 139.341 326.55 139.072 326.724C138.803 326.893 138.669 327.157 138.669 327.517C138.669 327.755 138.764 327.943 138.955 328.082C139.146 328.216 139.427 328.329 139.8 328.42L141.146 328.758C141.458 328.84 141.713 328.949 141.913 329.083C142.116 329.217 142.277 329.367 142.394 329.532C142.515 329.696 142.599 329.87 142.647 330.052C142.699 330.229 142.725 330.4 142.725 330.565C142.725 330.977 142.621 331.332 142.413 331.631C142.209 331.926 141.915 332.155 141.529 332.32C141.148 332.48 140.684 332.561 140.138 332.561ZM149.663 325.58C150.144 325.58 150.578 325.673 150.963 325.859C151.349 326.041 151.663 326.301 151.906 326.639C152.153 326.977 152.307 327.376 152.367 327.835H151.301C151.262 327.601 151.171 327.387 151.028 327.192C150.89 326.997 150.705 326.841 150.476 326.724C150.246 326.607 149.977 326.548 149.67 326.548C149.093 326.548 148.625 326.756 148.266 327.172C147.906 327.588 147.726 328.225 147.726 329.083C147.726 329.859 147.891 330.481 148.22 330.949C148.554 331.412 149.044 331.644 149.689 331.644C149.997 331.644 150.263 331.586 150.489 331.469C150.718 331.347 150.903 331.189 151.041 330.994C151.18 330.795 151.269 330.582 151.308 330.357H152.354C152.298 330.808 152.146 331.198 151.899 331.527C151.652 331.856 151.336 332.112 150.95 332.294C150.569 332.472 150.14 332.561 149.663 332.561C149.061 332.561 148.526 332.428 148.058 332.164C147.594 331.9 147.23 331.51 146.966 330.994C146.701 330.478 146.569 329.846 146.569 329.096C146.569 328.394 146.688 327.781 146.927 327.257C147.169 326.728 147.52 326.316 147.98 326.022C148.443 325.727 149.005 325.58 149.663 325.58ZM156.565 332.561C155.945 332.561 155.403 332.428 154.94 332.164C154.476 331.895 154.116 331.503 153.861 330.988C153.605 330.472 153.477 329.841 153.477 329.096C153.477 328.394 153.596 327.779 153.835 327.25C154.073 326.721 154.422 326.312 154.881 326.022C155.345 325.727 155.906 325.58 156.565 325.58C157.184 325.58 157.722 325.716 158.177 325.989C158.636 326.258 158.991 326.654 159.243 327.179C159.494 327.703 159.62 328.342 159.62 329.096C159.62 329.781 159.503 330.383 159.269 330.903C159.039 331.423 158.697 331.83 158.242 332.125C157.791 332.415 157.232 332.561 156.565 332.561ZM156.565 331.612C156.968 331.612 157.308 331.51 157.585 331.306C157.862 331.102 158.073 330.81 158.216 330.429C158.359 330.047 158.43 329.594 158.43 329.07C158.43 328.589 158.367 328.158 158.242 327.777C158.116 327.391 157.914 327.085 157.637 326.86C157.364 326.635 157.007 326.522 156.565 326.522C156.157 326.522 155.813 326.624 155.531 326.828C155.249 327.027 155.035 327.317 154.888 327.699C154.745 328.08 154.673 328.537 154.673 329.07C154.673 329.542 154.738 329.971 154.868 330.357C154.998 330.743 155.202 331.048 155.479 331.274C155.756 331.499 156.118 331.612 156.565 331.612ZM161.093 332.431V325.71H162.25V326.685C162.436 326.39 162.692 326.132 163.017 325.911C163.342 325.69 163.764 325.58 164.284 325.58C164.527 325.58 164.774 325.621 165.025 325.703C165.281 325.785 165.515 325.909 165.727 326.074C165.94 326.238 166.104 326.44 166.221 326.678C166.429 326.349 166.711 326.084 167.066 325.885C167.422 325.681 167.823 325.58 168.269 325.58C168.503 325.58 168.748 325.616 169.003 325.69C169.259 325.759 169.495 325.885 169.712 326.067C169.933 326.245 170.113 326.494 170.251 326.815C170.39 327.131 170.459 327.538 170.459 328.037V332.431H169.25V328.154C169.25 327.746 169.185 327.432 169.055 327.211C168.925 326.986 168.754 326.828 168.542 326.737C168.334 326.646 168.111 326.6 167.872 326.6C167.664 326.6 167.443 326.641 167.209 326.724C166.975 326.806 166.776 326.945 166.611 327.14C166.447 327.335 166.364 327.601 166.364 327.939V332.431H165.168V327.803C165.168 327.538 165.097 327.317 164.954 327.14C164.815 326.962 164.64 326.828 164.427 326.737C164.219 326.646 164.011 326.6 163.803 326.6C163.574 326.6 163.342 326.646 163.108 326.737C162.878 326.828 162.683 326.973 162.523 327.172C162.367 327.367 162.289 327.623 162.289 327.939V332.431H161.093ZM172.241 334.524V325.71H173.437L173.45 326.88C173.528 326.741 173.628 326.596 173.749 326.444C173.875 326.292 174.026 326.152 174.204 326.022C174.386 325.892 174.596 325.785 174.834 325.703C175.077 325.621 175.352 325.58 175.66 325.58C176.197 325.58 176.67 325.703 177.077 325.95C177.489 326.193 177.809 326.565 178.039 327.068C178.269 327.571 178.383 328.208 178.383 328.979C178.383 329.75 178.271 330.403 178.045 330.936C177.824 331.464 177.504 331.867 177.083 332.145C176.663 332.422 176.156 332.561 175.562 332.561C175.263 332.561 174.997 332.517 174.763 332.431C174.533 332.348 174.332 332.24 174.158 332.106C173.989 331.967 173.846 331.82 173.729 331.664C173.617 331.508 173.524 331.358 173.45 331.215V334.524H172.241ZM175.335 331.625C175.89 331.625 176.342 331.414 176.693 330.994C177.044 330.569 177.22 329.911 177.22 329.018C177.22 328.251 177.06 327.642 176.739 327.192C176.418 326.741 175.95 326.516 175.335 326.516C174.711 326.516 174.239 326.747 173.918 327.211C173.597 327.67 173.437 328.273 173.437 329.018C173.437 329.499 173.508 329.937 173.651 330.331C173.794 330.725 174.007 331.04 174.288 331.274C174.57 331.508 174.919 331.625 175.335 331.625ZM181.556 332.515C181.192 332.515 180.897 332.465 180.672 332.366C180.451 332.266 180.28 332.132 180.159 331.963C180.042 331.794 179.961 331.601 179.918 331.384C179.879 331.163 179.86 330.936 179.86 330.702V322.772H181.043V330.585C181.043 330.923 181.108 331.176 181.238 331.345C181.372 331.514 181.558 331.607 181.797 331.625L182.161 331.631V332.411C182.061 332.441 181.957 332.465 181.849 332.483C181.74 332.504 181.643 332.515 181.556 332.515ZM184.375 329.35C184.375 329.774 184.445 330.16 184.583 330.507C184.726 330.849 184.941 331.122 185.227 331.326C185.517 331.529 185.879 331.631 186.312 331.631C186.741 331.631 187.11 331.531 187.417 331.332C187.729 331.133 187.929 330.845 188.015 330.468H189.153C189.071 330.923 188.889 331.306 188.607 331.618C188.325 331.93 187.985 332.166 187.586 332.327C187.188 332.483 186.772 332.561 186.338 332.561C185.71 332.561 185.158 332.424 184.681 332.151C184.204 331.878 183.832 331.486 183.563 330.975C183.294 330.463 183.16 329.85 183.16 329.135C183.16 328.429 183.281 327.809 183.524 327.276C183.767 326.743 184.118 326.327 184.577 326.028C185.041 325.729 185.597 325.58 186.247 325.58C186.88 325.58 187.415 325.716 187.853 325.989C188.291 326.262 188.622 326.648 188.847 327.146C189.077 327.64 189.192 328.227 189.192 328.908V329.35H184.375ZM184.382 328.537H188.035C188.035 328.151 187.97 327.805 187.84 327.497C187.71 327.185 187.511 326.94 187.242 326.763C186.978 326.581 186.644 326.49 186.241 326.49C185.821 326.49 185.472 326.591 185.194 326.795C184.921 326.994 184.716 327.252 184.577 327.569C184.443 327.881 184.378 328.203 184.382 328.537ZM193.941 326.587H192.427V330.767C192.427 331.005 192.451 331.18 192.498 331.293C192.55 331.401 192.635 331.471 192.752 331.501C192.873 331.531 193.038 331.547 193.246 331.547H193.98V332.353C193.898 332.383 193.772 332.409 193.603 332.431C193.439 332.452 193.233 332.463 192.986 332.463C192.522 332.463 192.163 332.4 191.907 332.275C191.651 332.149 191.471 331.963 191.367 331.716C191.268 331.469 191.218 331.165 191.218 330.806V326.587H190.126V325.71H191.25L191.543 323.753H192.427V325.703H193.941V326.587ZM196.249 329.35C196.249 329.774 196.318 330.16 196.457 330.507C196.6 330.849 196.814 331.122 197.1 331.326C197.391 331.529 197.752 331.631 198.186 331.631C198.615 331.631 198.983 331.531 199.291 331.332C199.603 331.133 199.802 330.845 199.889 330.468H201.026C200.944 330.923 200.762 331.306 200.48 331.618C200.199 331.93 199.858 332.166 199.46 332.327C199.061 332.483 198.645 332.561 198.212 332.561C197.583 332.561 197.031 332.424 196.554 332.151C196.078 331.878 195.705 331.486 195.436 330.975C195.168 330.463 195.033 329.85 195.033 329.135C195.033 328.429 195.155 327.809 195.397 327.276C195.64 326.743 195.991 326.327 196.45 326.028C196.914 325.729 197.471 325.58 198.121 325.58C198.753 325.58 199.289 325.716 199.726 325.989C200.164 326.262 200.495 326.648 200.721 327.146C200.95 327.64 201.065 328.227 201.065 328.908V329.35H196.249ZM196.255 328.537H199.908C199.908 328.151 199.843 327.805 199.713 327.497C199.583 327.185 199.384 326.94 199.115 326.763C198.851 326.581 198.517 326.49 198.114 326.49C197.694 326.49 197.345 326.591 197.068 326.795C196.795 326.994 196.589 327.252 196.45 327.569C196.316 327.881 196.251 328.203 196.255 328.537ZM205.04 332.561C204.169 332.561 203.478 332.262 202.967 331.664C202.456 331.066 202.2 330.192 202.2 329.044C202.2 328.346 202.302 327.738 202.505 327.218C202.713 326.698 203.021 326.295 203.428 326.009C203.836 325.723 204.343 325.58 204.949 325.58C205.27 325.58 205.554 325.621 205.801 325.703C206.052 325.785 206.269 325.889 206.451 326.015C206.633 326.141 206.78 326.271 206.893 326.405C207.01 326.539 207.097 326.663 207.153 326.776V322.772H208.362V332.431H207.445L207.315 331.053C207.272 331.183 207.203 331.334 207.107 331.508C207.012 331.677 206.878 331.843 206.704 332.008C206.531 332.168 206.308 332.301 206.035 332.405C205.766 332.509 205.435 332.561 205.04 332.561ZM205.255 331.638C205.935 331.638 206.421 331.432 206.711 331.02C207.006 330.604 207.153 329.926 207.153 328.986C207.149 328.461 207.081 328.015 206.951 327.647C206.826 327.278 206.626 326.999 206.353 326.808C206.085 326.613 205.727 326.516 205.281 326.516C204.726 326.516 204.276 326.713 203.929 327.107C203.582 327.501 203.409 328.128 203.409 328.986C203.409 329.826 203.565 330.478 203.877 330.942C204.193 331.406 204.653 331.638 205.255 331.638ZM215.002 332.561C214.569 332.561 214.186 332.485 213.852 332.333C213.518 332.177 213.256 331.954 213.065 331.664C212.879 331.373 212.786 331.022 212.786 330.611C212.786 329.865 213.046 329.311 213.566 328.947C214.086 328.583 214.92 328.388 216.068 328.362L217.271 328.329V327.803C217.271 327.391 217.147 327.066 216.9 326.828C216.653 326.585 216.27 326.464 215.75 326.464C215.364 326.468 215.024 326.559 214.729 326.737C214.439 326.914 214.251 327.205 214.164 327.608H213.104C213.13 327.17 213.254 326.802 213.475 326.503C213.696 326.199 214.004 325.97 214.398 325.814C214.797 325.658 215.267 325.58 215.808 325.58C216.393 325.58 216.879 325.662 217.264 325.827C217.654 325.991 217.945 326.234 218.135 326.555C218.33 326.875 218.428 327.27 218.428 327.738V332.431H217.401L217.316 331.17C217.056 331.694 216.725 332.058 216.322 332.262C215.923 332.461 215.483 332.561 215.002 332.561ZM215.366 331.696C215.592 331.696 215.815 331.655 216.036 331.573C216.261 331.49 216.467 331.38 216.653 331.241C216.84 331.098 216.987 330.94 217.095 330.767C217.208 330.589 217.267 330.407 217.271 330.221V329.07L216.27 329.09C215.759 329.098 215.33 329.15 214.983 329.246C214.641 329.341 214.383 329.49 214.209 329.694C214.04 329.898 213.956 330.164 213.956 330.494C213.956 330.871 214.086 331.165 214.346 331.378C214.61 331.59 214.95 331.696 215.366 331.696ZM220.381 332.431V325.71H221.545V326.685C221.653 326.498 221.803 326.323 221.993 326.158C222.188 325.993 222.422 325.861 222.695 325.762C222.973 325.662 223.291 325.612 223.651 325.612C224.075 325.612 224.465 325.697 224.821 325.866C225.18 326.035 225.466 326.299 225.679 326.659C225.895 327.014 226.004 327.473 226.004 328.037V332.431H224.801V328.154C224.801 327.629 224.663 327.241 224.385 326.99C224.112 326.734 223.757 326.607 223.319 326.607C223.016 326.607 222.732 326.656 222.468 326.756C222.203 326.851 221.989 326.999 221.824 327.198C221.66 327.393 221.577 327.64 221.577 327.939V332.431H220.381ZM230.209 332.561C229.338 332.561 228.647 332.262 228.135 331.664C227.624 331.066 227.368 330.192 227.368 329.044C227.368 328.346 227.47 327.738 227.674 327.218C227.882 326.698 228.189 326.295 228.597 326.009C229.004 325.723 229.511 325.58 230.118 325.58C230.438 325.58 230.722 325.621 230.969 325.703C231.221 325.785 231.437 325.889 231.619 326.015C231.801 326.141 231.949 326.271 232.061 326.405C232.178 326.539 232.265 326.663 232.321 326.776V322.772H233.53V332.431H232.614L232.484 331.053C232.44 331.183 232.371 331.334 232.276 331.508C232.18 331.677 232.046 331.843 231.873 332.008C231.699 332.168 231.476 332.301 231.203 332.405C230.935 332.509 230.603 332.561 230.209 332.561ZM230.423 331.638C231.104 331.638 231.589 331.432 231.879 331.02C232.174 330.604 232.321 329.926 232.321 328.986C232.317 328.461 232.25 328.015 232.12 327.647C231.994 327.278 231.795 326.999 231.522 326.808C231.253 326.613 230.896 326.516 230.449 326.516C229.895 326.516 229.444 326.713 229.097 327.107C228.751 327.501 228.577 328.128 228.577 328.986C228.577 329.826 228.733 330.478 229.045 330.942C229.362 331.406 229.821 331.638 230.423 331.638ZM115.454 352.524V343.71H116.65L116.663 344.88C116.741 344.741 116.841 344.596 116.962 344.444C117.088 344.292 117.24 344.152 117.417 344.022C117.599 343.892 117.809 343.785 118.048 343.703C118.29 343.621 118.566 343.58 118.873 343.58C119.411 343.58 119.883 343.703 120.29 343.95C120.702 344.193 121.023 344.565 121.252 345.068C121.482 345.571 121.597 346.208 121.597 346.979C121.597 347.75 121.484 348.403 121.259 348.936C121.038 349.464 120.717 349.867 120.297 350.145C119.876 350.422 119.369 350.561 118.776 350.561C118.477 350.561 118.21 350.517 117.976 350.431C117.747 350.348 117.545 350.24 117.372 350.106C117.203 349.967 117.06 349.82 116.943 349.664C116.83 349.508 116.737 349.358 116.663 349.215V352.524H115.454ZM118.548 349.625C119.103 349.625 119.556 349.414 119.907 348.994C120.258 348.569 120.433 347.911 120.433 347.018C120.433 346.251 120.273 345.642 119.952 345.192C119.632 344.741 119.164 344.516 118.548 344.516C117.924 344.516 117.452 344.747 117.131 345.211C116.811 345.67 116.65 346.273 116.65 347.018C116.65 347.499 116.722 347.937 116.865 348.331C117.008 348.725 117.22 349.04 117.502 349.274C117.783 349.508 118.132 349.625 118.548 349.625ZM123.073 350.431V343.71H124.217V345.003C124.33 344.682 124.488 344.418 124.691 344.21C124.895 343.998 125.127 343.84 125.387 343.736C125.651 343.632 125.924 343.58 126.206 343.58C126.306 343.58 126.403 343.586 126.498 343.599C126.594 343.612 126.667 343.634 126.719 343.664V344.828C126.654 344.797 126.57 344.778 126.466 344.769C126.366 344.756 126.282 344.75 126.212 344.75C125.944 344.732 125.692 344.75 125.458 344.802C125.224 344.849 125.019 344.934 124.841 345.055C124.663 345.176 124.522 345.337 124.418 345.536C124.319 345.731 124.269 345.969 124.269 346.251V350.431H123.073ZM130.532 350.561C129.912 350.561 129.371 350.428 128.907 350.164C128.443 349.895 128.084 349.503 127.828 348.988C127.572 348.472 127.445 347.841 127.445 347.096C127.445 346.394 127.564 345.779 127.802 345.25C128.04 344.721 128.389 344.312 128.849 344.022C129.312 343.727 129.873 343.58 130.532 343.58C131.152 343.58 131.689 343.716 132.144 343.989C132.603 344.258 132.959 344.654 133.21 345.179C133.461 345.703 133.587 346.342 133.587 347.096C133.587 347.781 133.47 348.383 133.236 348.903C133.006 349.423 132.664 349.83 132.209 350.125C131.758 350.415 131.199 350.561 130.532 350.561ZM130.532 349.612C130.935 349.612 131.275 349.51 131.553 349.306C131.83 349.102 132.04 348.81 132.183 348.429C132.326 348.047 132.398 347.594 132.398 347.07C132.398 346.589 132.335 346.158 132.209 345.777C132.083 345.391 131.882 345.085 131.605 344.86C131.332 344.635 130.974 344.522 130.532 344.522C130.125 344.522 129.78 344.624 129.499 344.828C129.217 345.027 129.002 345.317 128.855 345.699C128.712 346.08 128.641 346.537 128.641 347.07C128.641 347.542 128.706 347.971 128.836 348.357C128.966 348.743 129.169 349.048 129.447 349.274C129.724 349.499 130.086 349.612 130.532 349.612ZM137.738 343.58C138.219 343.58 138.653 343.673 139.038 343.859C139.424 344.041 139.738 344.301 139.981 344.639C140.228 344.977 140.382 345.376 140.442 345.835H139.376C139.337 345.601 139.246 345.387 139.103 345.192C138.965 344.997 138.781 344.841 138.551 344.724C138.321 344.607 138.053 344.548 137.745 344.548C137.169 344.548 136.701 344.756 136.341 345.172C135.981 345.588 135.801 346.225 135.801 347.083C135.801 347.859 135.966 348.481 136.295 348.949C136.629 349.412 137.119 349.644 137.764 349.644C138.072 349.644 138.339 349.586 138.564 349.469C138.794 349.347 138.978 349.189 139.116 348.994C139.255 348.795 139.344 348.582 139.383 348.357H140.429C140.373 348.808 140.221 349.198 139.974 349.527C139.727 349.856 139.411 350.112 139.025 350.294C138.644 350.472 138.215 350.561 137.738 350.561C137.136 350.561 136.601 350.428 136.133 350.164C135.669 349.9 135.305 349.51 135.041 348.994C134.777 348.478 134.644 347.846 134.644 347.096C134.644 346.394 134.764 345.781 135.002 345.257C135.245 344.728 135.596 344.316 136.055 344.022C136.519 343.727 137.08 343.58 137.738 343.58ZM142.826 347.35C142.826 347.774 142.896 348.16 143.034 348.507C143.177 348.849 143.392 349.122 143.678 349.326C143.968 349.529 144.33 349.631 144.763 349.631C145.192 349.631 145.561 349.531 145.868 349.332C146.18 349.133 146.38 348.845 146.466 348.468H147.604C147.521 348.923 147.339 349.306 147.058 349.618C146.776 349.93 146.436 350.166 146.037 350.327C145.639 350.483 145.223 350.561 144.789 350.561C144.161 350.561 143.608 350.424 143.132 350.151C142.655 349.878 142.282 349.486 142.014 348.975C141.745 348.463 141.611 347.85 141.611 347.135C141.611 346.429 141.732 345.809 141.975 345.276C142.217 344.743 142.568 344.327 143.028 344.028C143.491 343.729 144.048 343.58 144.698 343.58C145.331 343.58 145.866 343.716 146.304 343.989C146.741 344.262 147.073 344.648 147.298 345.146C147.528 345.64 147.643 346.227 147.643 346.908V347.35H142.826ZM142.833 346.537H146.486C146.486 346.151 146.421 345.805 146.291 345.497C146.161 345.185 145.961 344.94 145.693 344.763C145.428 344.581 145.095 344.49 144.692 344.49C144.271 344.49 143.923 344.591 143.645 344.795C143.372 344.994 143.166 345.252 143.028 345.569C142.893 345.881 142.828 346.203 142.833 346.537ZM151.528 350.561C151.06 350.561 150.625 350.489 150.222 350.346C149.823 350.199 149.491 349.971 149.227 349.664C148.963 349.352 148.796 348.955 148.727 348.474H149.819C149.879 348.738 149.988 348.959 150.144 349.137C150.304 349.31 150.503 349.443 150.742 349.534C150.98 349.62 151.24 349.664 151.522 349.664C151.972 349.664 152.336 349.579 152.614 349.41C152.891 349.241 153.03 348.981 153.03 348.63C153.03 348.383 152.956 348.186 152.809 348.039C152.666 347.887 152.442 347.776 152.139 347.707L150.748 347.363C150.206 347.233 149.773 347.029 149.448 346.752C149.123 346.474 148.961 346.086 148.961 345.588C148.956 345.194 149.049 344.847 149.24 344.548C149.431 344.249 149.717 344.013 150.098 343.84C150.479 343.666 150.954 343.58 151.522 343.58C152.25 343.58 152.837 343.744 153.283 344.074C153.734 344.399 153.968 344.877 153.985 345.51H152.926C152.882 345.189 152.737 344.936 152.49 344.75C152.247 344.559 151.92 344.464 151.509 344.464C151.08 344.464 150.731 344.55 150.462 344.724C150.193 344.893 150.059 345.157 150.059 345.517C150.059 345.755 150.154 345.943 150.345 346.082C150.536 346.216 150.817 346.329 151.19 346.42L152.536 346.758C152.848 346.84 153.103 346.949 153.303 347.083C153.506 347.217 153.667 347.367 153.784 347.532C153.905 347.696 153.989 347.87 154.037 348.052C154.089 348.229 154.115 348.4 154.115 348.565C154.115 348.977 154.011 349.332 153.803 349.631C153.599 349.926 153.305 350.155 152.919 350.32C152.538 350.48 152.074 350.561 151.528 350.561ZM157.966 350.561C157.498 350.561 157.063 350.489 156.66 350.346C156.261 350.199 155.93 349.971 155.665 349.664C155.401 349.352 155.234 348.955 155.165 348.474H156.257C156.317 348.738 156.426 348.959 156.582 349.137C156.742 349.31 156.941 349.443 157.18 349.534C157.418 349.62 157.678 349.664 157.96 349.664C158.41 349.664 158.774 349.579 159.052 349.41C159.329 349.241 159.468 348.981 159.468 348.63C159.468 348.383 159.394 348.186 159.247 348.039C159.104 347.887 158.881 347.776 158.577 347.707L157.186 347.363C156.645 347.233 156.211 347.029 155.886 346.752C155.561 346.474 155.399 346.086 155.399 345.588C155.394 345.194 155.488 344.847 155.678 344.548C155.869 344.249 156.155 344.013 156.536 343.84C156.918 343.666 157.392 343.58 157.96 343.58C158.688 343.58 159.275 343.744 159.721 344.074C160.172 344.399 160.406 344.877 160.423 345.51H159.364C159.32 345.189 159.175 344.936 158.928 344.75C158.686 344.559 158.358 344.464 157.947 344.464C157.518 344.464 157.169 344.55 156.9 344.724C156.632 344.893 156.497 345.157 156.497 345.517C156.497 345.755 156.593 345.943 156.783 346.082C156.974 346.216 157.256 346.329 157.628 346.42L158.974 346.758C159.286 346.84 159.541 346.949 159.741 347.083C159.944 347.217 160.105 347.367 160.222 347.532C160.343 347.696 160.428 347.87 160.475 348.052C160.527 348.229 160.553 348.4 160.553 348.565C160.553 348.977 160.449 349.332 160.241 349.631C160.038 349.926 159.743 350.155 159.357 350.32C158.976 350.48 158.512 350.561 157.966 350.561ZM162.991 347.35C162.991 347.774 163.06 348.16 163.199 348.507C163.342 348.849 163.557 349.122 163.843 349.326C164.133 349.529 164.495 349.631 164.928 349.631C165.357 349.631 165.725 349.531 166.033 349.332C166.345 349.133 166.544 348.845 166.631 348.468H167.769C167.686 348.923 167.504 349.306 167.223 349.618C166.941 349.93 166.601 350.166 166.202 350.327C165.803 350.483 165.387 350.561 164.954 350.561C164.326 350.561 163.773 350.424 163.297 350.151C162.82 349.878 162.447 349.486 162.179 348.975C161.91 348.463 161.776 347.85 161.776 347.135C161.776 346.429 161.897 345.809 162.14 345.276C162.382 344.743 162.733 344.327 163.193 344.028C163.656 343.729 164.213 343.58 164.863 343.58C165.496 343.58 166.031 343.716 166.469 343.989C166.906 344.262 167.238 344.648 167.463 345.146C167.693 345.64 167.808 346.227 167.808 346.908V347.35H162.991ZM162.998 346.537H166.651C166.651 346.151 166.586 345.805 166.456 345.497C166.326 345.185 166.126 344.94 165.858 344.763C165.593 344.581 165.26 344.49 164.857 344.49C164.436 344.49 164.087 344.591 163.81 344.795C163.537 344.994 163.331 345.252 163.193 345.569C163.058 345.881 162.993 346.203 162.998 346.537ZM171.783 350.561C170.912 350.561 170.221 350.262 169.709 349.664C169.198 349.066 168.942 348.192 168.942 347.044C168.942 346.346 169.044 345.738 169.248 345.218C169.456 344.698 169.763 344.295 170.171 344.009C170.578 343.723 171.085 343.58 171.692 343.58C172.012 343.58 172.296 343.621 172.543 343.703C172.795 343.785 173.011 343.889 173.193 344.015C173.375 344.141 173.523 344.271 173.635 344.405C173.752 344.539 173.839 344.663 173.895 344.776V340.772H175.104V350.431H174.188L174.058 349.053C174.014 349.183 173.945 349.334 173.85 349.508C173.754 349.677 173.62 349.843 173.447 350.008C173.273 350.168 173.05 350.301 172.777 350.405C172.509 350.509 172.177 350.561 171.783 350.561ZM171.997 349.638C172.678 349.638 173.163 349.432 173.453 349.02C173.748 348.604 173.895 347.926 173.895 346.986C173.891 346.461 173.824 346.015 173.694 345.647C173.568 345.278 173.369 344.999 173.096 344.808C172.827 344.613 172.47 344.516 172.023 344.516C171.469 344.516 171.018 344.713 170.671 345.107C170.325 345.501 170.151 346.128 170.151 346.986C170.151 347.826 170.307 348.478 170.619 348.942C170.936 349.406 171.395 349.638 171.997 349.638ZM182.271 350.561C181.803 350.561 181.368 350.489 180.965 350.346C180.566 350.199 180.235 349.971 179.97 349.664C179.706 349.352 179.539 348.955 179.47 348.474H180.562C180.622 348.738 180.731 348.959 180.887 349.137C181.047 349.31 181.246 349.443 181.485 349.534C181.723 349.62 181.983 349.664 182.265 349.664C182.715 349.664 183.079 349.579 183.357 349.41C183.634 349.241 183.773 348.981 183.773 348.63C183.773 348.383 183.699 348.186 183.552 348.039C183.409 347.887 183.186 347.776 182.882 347.707L181.491 347.363C180.95 347.233 180.516 347.029 180.191 346.752C179.866 346.474 179.704 346.086 179.704 345.588C179.699 345.194 179.793 344.847 179.983 344.548C180.174 344.249 180.46 344.013 180.841 343.84C181.223 343.666 181.697 343.58 182.265 343.58C182.993 343.58 183.58 343.744 184.026 344.074C184.477 344.399 184.711 344.877 184.728 345.51H183.669C183.625 345.189 183.48 344.936 183.233 344.75C182.991 344.559 182.663 344.464 182.252 344.464C181.823 344.464 181.474 344.55 181.205 344.724C180.937 344.893 180.802 345.157 180.802 345.517C180.802 345.755 180.898 345.943 181.088 346.082C181.279 346.216 181.561 346.329 181.933 346.42L183.279 346.758C183.591 346.84 183.846 346.949 184.046 347.083C184.249 347.217 184.41 347.367 184.527 347.532C184.648 347.696 184.733 347.87 184.78 348.052C184.832 348.229 184.858 348.4 184.858 348.565C184.858 348.977 184.754 349.332 184.546 349.631C184.343 349.926 184.048 350.155 183.662 350.32C183.281 350.48 182.817 350.561 182.271 350.561ZM188.908 350.561C188.557 350.556 188.226 350.506 187.914 350.411C187.606 350.311 187.333 350.166 187.095 349.976C186.856 349.785 186.668 349.549 186.529 349.267C186.395 348.981 186.328 348.65 186.328 348.273V343.71H187.53V348.149C187.53 348.587 187.664 348.942 187.933 349.215C188.206 349.488 188.616 349.625 189.162 349.625C189.656 349.625 190.052 349.497 190.351 349.241C190.654 348.981 190.806 348.595 190.806 348.084V343.71H192.002V350.431H191.047L190.923 349.144C190.841 349.482 190.7 349.755 190.501 349.963C190.306 350.171 190.069 350.324 189.792 350.424C189.519 350.519 189.224 350.565 188.908 350.561ZM196.456 343.58C196.937 343.58 197.37 343.673 197.756 343.859C198.141 344.041 198.455 344.301 198.698 344.639C198.945 344.977 199.099 345.376 199.16 345.835H198.094C198.055 345.601 197.964 345.387 197.821 345.192C197.682 344.997 197.498 344.841 197.268 344.724C197.038 344.607 196.77 344.548 196.462 344.548C195.886 344.548 195.418 344.756 195.058 345.172C194.698 345.588 194.519 346.225 194.519 347.083C194.519 347.859 194.683 348.481 195.013 348.949C195.346 349.412 195.836 349.644 196.482 349.644C196.789 349.644 197.056 349.586 197.281 349.469C197.511 349.347 197.695 349.189 197.834 348.994C197.972 348.795 198.061 348.582 198.1 348.357H199.147C199.09 348.808 198.939 349.198 198.692 349.527C198.445 349.856 198.128 350.112 197.743 350.294C197.361 350.472 196.932 350.561 196.456 350.561C195.853 350.561 195.318 350.428 194.85 350.164C194.386 349.9 194.022 349.51 193.758 348.994C193.494 348.478 193.362 347.846 193.362 347.096C193.362 346.394 193.481 345.781 193.719 345.257C193.962 344.728 194.313 344.316 194.772 344.022C195.236 343.727 195.797 343.58 196.456 343.58ZM203.363 343.58C203.844 343.58 204.278 343.673 204.663 343.859C205.049 344.041 205.363 344.301 205.606 344.639C205.853 344.977 206.007 345.376 206.067 345.835H205.001C204.962 345.601 204.871 345.387 204.728 345.192C204.59 344.997 204.406 344.841 204.176 344.724C203.946 344.607 203.678 344.548 203.37 344.548C202.794 344.548 202.326 344.756 201.966 345.172C201.606 345.588 201.426 346.225 201.426 347.083C201.426 347.859 201.591 348.481 201.92 348.949C202.254 349.412 202.744 349.644 203.389 349.644C203.697 349.644 203.964 349.586 204.189 349.469C204.419 349.347 204.603 349.189 204.741 348.994C204.88 348.795 204.969 348.582 205.008 348.357H206.054C205.998 348.808 205.846 349.198 205.599 349.527C205.352 349.856 205.036 350.112 204.65 350.294C204.269 350.472 203.84 350.561 203.363 350.561C202.761 350.561 202.226 350.428 201.758 350.164C201.294 349.9 200.93 349.51 200.666 348.994C200.402 348.478 200.269 347.846 200.269 347.096C200.269 346.394 200.389 345.781 200.627 345.257C200.87 344.728 201.221 344.316 201.68 344.022C202.144 343.727 202.705 343.58 203.363 343.58ZM208.451 347.35C208.451 347.774 208.521 348.16 208.659 348.507C208.802 348.849 209.017 349.122 209.303 349.326C209.593 349.529 209.955 349.631 210.388 349.631C210.817 349.631 211.186 349.531 211.493 349.332C211.805 349.133 212.005 348.845 212.091 348.468H213.229C213.146 348.923 212.964 349.306 212.683 349.618C212.401 349.93 212.061 350.166 211.662 350.327C211.264 350.483 210.848 350.561 210.414 350.561C209.786 350.561 209.233 350.424 208.757 350.151C208.28 349.878 207.907 349.486 207.639 348.975C207.37 348.463 207.236 347.85 207.236 347.135C207.236 346.429 207.357 345.809 207.6 345.276C207.842 344.743 208.193 344.327 208.653 344.028C209.116 343.729 209.673 343.58 210.323 343.58C210.956 343.58 211.491 343.716 211.929 343.989C212.366 344.262 212.698 344.648 212.923 345.146C213.153 345.64 213.268 346.227 213.268 346.908V347.35H208.451ZM208.458 346.537H212.111C212.111 346.151 212.046 345.805 211.916 345.497C211.786 345.185 211.586 344.94 211.318 344.763C211.053 344.581 210.72 344.49 210.317 344.49C209.896 344.49 209.548 344.591 209.27 344.795C208.997 344.994 208.791 345.252 208.653 345.569C208.518 345.881 208.453 346.203 208.458 346.537ZM217.153 350.561C216.685 350.561 216.25 350.489 215.847 350.346C215.448 350.199 215.116 349.971 214.852 349.664C214.588 349.352 214.421 348.955 214.352 348.474H215.444C215.504 348.738 215.613 348.959 215.769 349.137C215.929 349.31 216.128 349.443 216.367 349.534C216.605 349.62 216.865 349.664 217.147 349.664C217.597 349.664 217.961 349.579 218.239 349.41C218.516 349.241 218.655 348.981 218.655 348.63C218.655 348.383 218.581 348.186 218.434 348.039C218.291 347.887 218.067 347.776 217.764 347.707L216.373 347.363C215.831 347.233 215.398 347.029 215.073 346.752C214.748 346.474 214.586 346.086 214.586 345.588C214.581 345.194 214.674 344.847 214.865 344.548C215.056 344.249 215.342 344.013 215.723 343.84C216.104 343.666 216.579 343.58 217.147 343.58C217.875 343.58 218.462 343.744 218.908 344.074C219.359 344.399 219.593 344.877 219.61 345.51H218.551C218.507 345.189 218.362 344.936 218.115 344.75C217.872 344.559 217.545 344.464 217.134 344.464C216.705 344.464 216.356 344.55 216.087 344.724C215.818 344.893 215.684 345.157 215.684 345.517C215.684 345.755 215.779 345.943 215.97 346.082C216.161 346.216 216.442 346.329 216.815 346.42L218.161 346.758C218.473 346.84 218.728 346.949 218.928 347.083C219.131 347.217 219.292 347.367 219.409 347.532C219.53 347.696 219.614 347.87 219.662 348.052C219.714 348.229 219.74 348.4 219.74 348.565C219.74 348.977 219.636 349.332 219.428 349.631C219.224 349.926 218.93 350.155 218.544 350.32C218.163 350.48 217.699 350.561 217.153 350.561ZM223.591 350.561C223.123 350.561 222.688 350.489 222.285 350.346C221.886 350.199 221.555 349.971 221.29 349.664C221.026 349.352 220.859 348.955 220.79 348.474H221.882C221.942 348.738 222.051 348.959 222.207 349.137C222.367 349.31 222.566 349.443 222.805 349.534C223.043 349.62 223.303 349.664 223.585 349.664C224.035 349.664 224.399 349.579 224.677 349.41C224.954 349.241 225.093 348.981 225.093 348.63C225.093 348.383 225.019 348.186 224.872 348.039C224.729 347.887 224.506 347.776 224.202 347.707L222.811 347.363C222.27 347.233 221.836 347.029 221.511 346.752C221.186 346.474 221.024 346.086 221.024 345.588C221.019 345.194 221.113 344.847 221.303 344.548C221.494 344.249 221.78 344.013 222.161 343.84C222.543 343.666 223.017 343.58 223.585 343.58C224.313 343.58 224.9 343.744 225.346 344.074C225.797 344.399 226.031 344.877 226.048 345.51H224.989C224.945 345.189 224.8 344.936 224.553 344.75C224.311 344.559 223.983 344.464 223.572 344.464C223.143 344.464 222.794 344.55 222.525 344.724C222.257 344.893 222.122 345.157 222.122 345.517C222.122 345.755 222.218 345.943 222.408 346.082C222.599 346.216 222.881 346.329 223.253 346.42L224.599 346.758C224.911 346.84 225.166 346.949 225.366 347.083C225.569 347.217 225.73 347.367 225.847 347.532C225.968 347.696 226.053 347.87 226.1 348.052C226.152 348.229 226.178 348.4 226.178 348.565C226.178 348.977 226.074 349.332 225.866 349.631C225.663 349.926 225.368 350.155 224.982 350.32C224.601 350.48 224.137 350.561 223.591 350.561ZM231.554 343.71V344.587H229.923V350.431H228.714V344.587H227.297V343.71H228.714V342.67C228.714 342.137 228.85 341.731 229.123 341.454C229.396 341.172 229.803 341.032 230.345 341.032H231.613L231.619 341.883H230.612C230.339 341.883 230.152 341.957 230.053 342.104C229.953 342.251 229.903 342.475 229.903 342.774V343.71H231.554ZM235.409 350.561C235.058 350.556 234.727 350.506 234.415 350.411C234.107 350.311 233.834 350.166 233.596 349.976C233.357 349.785 233.169 349.549 233.03 349.267C232.896 348.981 232.829 348.65 232.829 348.273V343.71H234.031V348.149C234.031 348.587 234.166 348.942 234.434 349.215C234.707 349.488 235.117 349.625 235.663 349.625C236.157 349.625 236.553 349.497 236.852 349.241C237.156 348.981 237.307 348.595 237.307 348.084V343.71H238.503V350.431H237.548L237.424 349.144C237.342 349.482 237.201 349.755 237.002 349.963C236.807 350.171 236.571 350.324 236.293 350.424C236.02 350.519 235.726 350.565 235.409 350.561ZM242.064 350.515C241.7 350.515 241.405 350.465 241.18 350.366C240.959 350.266 240.788 350.132 240.667 349.963C240.55 349.794 240.469 349.601 240.426 349.384C240.387 349.163 240.368 348.936 240.368 348.702V340.772H241.551V348.585C241.551 348.923 241.616 349.176 241.746 349.345C241.88 349.514 242.066 349.607 242.305 349.625L242.669 349.631V350.411C242.569 350.441 242.465 350.465 242.357 350.483C242.248 350.504 242.151 350.515 242.064 350.515ZM245.646 350.515C245.282 350.515 244.987 350.465 244.762 350.366C244.541 350.266 244.37 350.132 244.248 349.963C244.131 349.794 244.051 349.601 244.008 349.384C243.969 349.163 243.949 348.936 243.949 348.702V340.772H245.132V348.585C245.132 348.923 245.197 349.176 245.327 349.345C245.462 349.514 245.648 349.607 245.886 349.625L246.25 349.631V350.411C246.151 350.441 246.047 350.465 245.938 350.483C245.83 350.504 245.732 350.515 245.646 350.515ZM248.13 352.576C247.736 352.576 247.465 352.547 247.318 352.491C247.171 352.435 247.097 352.407 247.097 352.407V351.627L247.779 351.64C248.031 351.648 248.239 351.631 248.403 351.588C248.568 351.544 248.7 351.486 248.8 351.412C248.9 351.338 248.975 351.256 249.027 351.165C249.084 351.074 249.129 350.987 249.164 350.905L249.398 350.268L246.772 343.71H247.987L249.97 348.897L251.939 343.71H253.116L250.282 350.938C250.109 351.362 249.914 351.694 249.697 351.932C249.485 352.17 249.246 352.337 248.982 352.433C248.722 352.528 248.438 352.576 248.13 352.576Z" fill="#36536B"/>
<g id="Group 31">
<circle id="Oval" opacity="0.25" cx="182.432" cy="260.431" r="28" fill="#BA4270"/>
<path id="Path 2" d="M173.432 262.127L178.009 266.704L191.282 253.431" stroke="#BA4270" stroke-width="3"/>
</g>
</g>
</g>
</g>
<g id="Group 2 Copy" clip-path="url(#clip1_0_4933)">
<rect id="Rectangle_2" x="118.432" y="372.431" width="131" height="30" rx="15" fill="#BA4270"/>
<path id="Dismiss" d="M165.006 383.478C165.046 383.478 165.158 383.478 165.341 383.478C165.528 383.478 165.746 383.478 165.996 383.478C166.249 383.478 166.5 383.479 166.749 383.483C167.002 383.483 167.213 383.485 167.382 383.489C168.346 383.511 169.133 383.683 169.741 384.006C170.35 384.328 170.795 384.779 171.078 385.359C171.364 385.938 171.507 386.624 171.507 387.416C171.507 388.241 171.356 388.954 171.056 389.555C170.755 390.153 170.295 390.615 169.675 390.941C169.059 391.267 168.276 391.431 167.327 391.431H165.006V383.478ZM166.623 384.776V390.133H167.36C167.814 390.133 168.227 390.045 168.597 389.869C168.971 389.693 169.27 389.405 169.494 389.005C169.717 388.605 169.829 388.072 169.829 387.405C169.829 386.785 169.73 386.283 169.532 385.898C169.334 385.509 169.052 385.225 168.685 385.045C168.319 384.865 167.884 384.776 167.382 384.776H166.623ZM174.252 385.744V391.431H172.717V385.744H174.252ZM174.268 383.483V384.93H172.706V383.483H174.268ZM177.872 391.541C177.476 391.541 177.094 391.476 176.728 391.348C176.361 391.216 176.051 391.011 175.798 390.732C175.545 390.45 175.384 390.085 175.314 389.638H176.706C176.753 389.839 176.84 389.999 176.964 390.116C177.093 390.233 177.237 390.318 177.399 390.369C177.56 390.417 177.714 390.441 177.861 390.441C178.169 390.441 178.416 390.393 178.603 390.298C178.794 390.199 178.889 390.048 178.889 389.847C178.889 389.693 178.832 389.57 178.719 389.478C178.609 389.386 178.425 389.317 178.169 389.269L177.168 389.06C176.665 388.954 176.262 388.774 175.958 388.521C175.653 388.264 175.498 387.901 175.49 387.432C175.49 387.091 175.58 386.785 175.76 386.514C175.943 386.242 176.213 386.028 176.568 385.87C176.924 385.712 177.36 385.634 177.877 385.634C178.578 385.634 179.137 385.788 179.555 386.096C179.976 386.404 180.191 386.838 180.198 387.399H178.856C178.816 387.179 178.706 387.01 178.526 386.893C178.35 386.772 178.128 386.712 177.861 386.712C177.582 386.712 177.353 386.761 177.173 386.86C176.994 386.959 176.904 387.109 176.904 387.311C176.904 387.461 176.977 387.581 177.124 387.669C177.27 387.753 177.498 387.826 177.806 387.889L178.73 388.098C179.049 388.175 179.307 388.281 179.505 388.417C179.707 388.549 179.863 388.693 179.973 388.851C180.083 389.009 180.158 389.168 180.198 389.33C180.242 389.487 180.264 389.63 180.264 389.759C180.264 390.136 180.163 390.459 179.962 390.727C179.76 390.991 179.48 391.192 179.12 391.332C178.761 391.471 178.345 391.541 177.872 391.541ZM181.306 391.431V385.744H182.879V386.547C183.051 386.297 183.282 386.083 183.572 385.903C183.865 385.723 184.234 385.634 184.678 385.634C184.872 385.634 185.07 385.668 185.272 385.738C185.473 385.808 185.662 385.91 185.838 386.046C186.018 386.178 186.163 386.345 186.273 386.547C186.456 386.286 186.696 386.07 186.993 385.898C187.294 385.722 187.627 385.634 187.994 385.634C188.207 385.634 188.421 385.668 188.638 385.738C188.858 385.808 189.059 385.921 189.243 386.079C189.426 386.237 189.573 386.448 189.683 386.712C189.796 386.972 189.853 387.295 189.853 387.68V391.431H188.247V387.878C188.247 387.65 188.201 387.469 188.11 387.333C188.022 387.194 187.908 387.095 187.769 387.036C187.633 386.974 187.488 386.943 187.334 386.943C187.191 386.943 187.046 386.972 186.9 387.031C186.753 387.086 186.628 387.175 186.526 387.3C186.423 387.425 186.372 387.588 186.372 387.79V391.431H184.771V387.735C184.771 387.562 184.725 387.417 184.634 387.3C184.542 387.183 184.426 387.095 184.287 387.036C184.151 386.974 184.012 386.943 183.869 386.943C183.722 386.943 183.576 386.974 183.429 387.036C183.282 387.095 183.16 387.188 183.061 387.317C182.962 387.441 182.912 387.599 182.912 387.79V391.431H181.306ZM192.689 385.744V391.431H191.155V385.744H192.689ZM192.706 383.483V384.93H191.144V383.483H192.706ZM196.309 391.541C195.913 391.541 195.532 391.476 195.165 391.348C194.799 391.216 194.489 391.011 194.236 390.732C193.983 390.45 193.821 390.085 193.752 389.638H195.143C195.191 389.839 195.277 389.999 195.402 390.116C195.53 390.233 195.675 390.318 195.836 390.369C195.998 390.417 196.152 390.441 196.298 390.441C196.606 390.441 196.854 390.393 197.041 390.298C197.231 390.199 197.327 390.048 197.327 389.847C197.327 389.693 197.27 389.57 197.156 389.478C197.046 389.386 196.863 389.317 196.606 389.269L195.605 389.06C195.103 388.954 194.7 388.774 194.395 388.521C194.091 388.264 193.935 387.901 193.928 387.432C193.928 387.091 194.018 386.785 194.197 386.514C194.381 386.242 194.65 386.028 195.006 385.87C195.361 385.712 195.798 385.634 196.315 385.634C197.015 385.634 197.574 385.788 197.992 386.096C198.414 386.404 198.628 386.838 198.636 387.399H197.294C197.253 387.179 197.143 387.01 196.964 386.893C196.788 386.772 196.566 386.712 196.298 386.712C196.02 386.712 195.79 386.761 195.611 386.86C195.431 386.959 195.341 387.109 195.341 387.311C195.341 387.461 195.415 387.581 195.561 387.669C195.708 387.753 195.935 387.826 196.243 387.889L197.167 388.098C197.486 388.175 197.745 388.281 197.943 388.417C198.144 388.549 198.3 388.693 198.41 388.851C198.52 389.009 198.595 389.168 198.636 389.33C198.68 389.487 198.702 389.63 198.702 389.759C198.702 390.136 198.601 390.459 198.399 390.727C198.198 390.991 197.917 391.192 197.558 391.332C197.198 391.471 196.782 391.541 196.309 391.541ZM201.918 391.541C201.522 391.541 201.141 391.476 200.774 391.348C200.407 391.216 200.098 391.011 199.845 390.732C199.592 390.45 199.43 390.085 199.361 389.638H200.752C200.8 389.839 200.886 389.999 201.011 390.116C201.139 390.233 201.284 390.318 201.445 390.369C201.606 390.417 201.76 390.441 201.907 390.441C202.215 390.441 202.463 390.393 202.65 390.298C202.84 390.199 202.936 390.048 202.936 389.847C202.936 389.693 202.879 389.57 202.765 389.478C202.655 389.386 202.472 389.317 202.215 389.269L201.214 389.06C200.712 388.954 200.308 388.774 200.004 388.521C199.7 388.264 199.544 387.901 199.537 387.432C199.537 387.091 199.626 386.785 199.806 386.514C199.989 386.242 200.259 386.028 200.615 385.87C200.97 385.712 201.407 385.634 201.924 385.634C202.624 385.634 203.183 385.788 203.601 386.096C204.023 386.404 204.237 386.838 204.245 387.399H202.903C202.862 387.179 202.752 387.01 202.573 386.893C202.397 386.772 202.175 386.712 201.907 386.712C201.628 386.712 201.399 386.761 201.22 386.86C201.04 386.959 200.95 387.109 200.95 387.311C200.95 387.461 201.023 387.581 201.17 387.669C201.317 387.753 201.544 387.826 201.852 387.889L202.776 388.098C203.095 388.175 203.354 388.281 203.552 388.417C203.753 388.549 203.909 388.693 204.019 388.851C204.129 389.009 204.204 389.168 204.245 389.33C204.289 389.487 204.311 389.63 204.311 389.759C204.311 390.136 204.21 390.459 204.008 390.727C203.806 390.991 203.526 391.192 203.167 391.332C202.807 391.471 202.391 391.541 201.918 391.541Z" fill="#FBFCFE"/>
</g>
</g>
</g>
<defs>
<filter id="filter0_d_0_4933" x="0" y="0" width="417.649" height="658.861" filterUnits="userSpaceOnUse" color-interpolation-filters="sRGB">
<feFlood flood-opacity="0" result="BackgroundImageFix"/>
<feColorMatrix in="SourceAlpha" type="matrix" values="0 0 0 0 0 0 0 0 0 0 0 0 0 0 0 0 0 0 127 0" result="hardAlpha"/>
<feOffset dx="25" dy="25"/>
<feGaussianBlur stdDeviation="40"/>
<feColorMatrix type="matrix" values="0 0 0 0 0.212302 0 0 0 0 0.32521 0 0 0 0 0.419299 0 0 0 0.300727 0"/>
<feBlend mode="normal" in2="BackgroundImageFix" result="effect1_dropShadow_0_4933"/>
<feBlend mode="normal" in="SourceGraphic" in2="effect1_dropShadow_0_4933" result="shape"/>
</filter>
<filter id="filter1_d_0_4933" x="90.4321" y="191.431" width="206" height="221" filterUnits="userSpaceOnUse" color-interpolation-filters="sRGB">
<feFlood flood-opacity="0" result="BackgroundImageFix"/>
<feColorMatrix in="SourceAlpha" type="matrix" values="0 0 0 0 0 0 0 0 0 0 0 0 0 0 0 0 0 0 127 0" result="hardAlpha"/>
<feMorphology radius="10" operator="erode" in="SourceAlpha" result="effect1_dropShadow_0_4933"/>
<feOffset dx="10" dy="10"/>
<feGaussianBlur stdDeviation="12.5"/>
<feColorMatrix type="matrix" values="0 0 0 0 0.212302 0 0 0 0 0.32521 0 0 0 0 0.419299 0 0 0 0.25 0"/>
<feBlend mode="normal" in2="BackgroundImageFix" result="effect1_dropShadow_0_4933"/>
<feBlend mode="normal" in="SourceGraphic" in2="effect1_dropShadow_0_4933" result="shape"/>
</filter>
<linearGradient id="paint0_linear_0_4933" x1="62.4468" y1="54.4305" x2="62.4468" y2="66.7545" gradientUnits="userSpaceOnUse">
<stop stop-color="#454545"/>
<stop offset="0.226279" stop-color="#999999"/>
<stop offset="1" stop-color="white"/>
</linearGradient>
<linearGradient id="paint1_linear_0_4933" x1="312.536" y1="140.178" x2="303.075" y2="140.178" gradientUnits="userSpaceOnUse">
<stop stop-color="white" stop-opacity="0.01"/>
<stop offset="0.222178" stop-color="#BABABA"/>
<stop offset="0.54678" stop-color="white" stop-opacity="0.01"/>
<stop offset="1" stop-color="white" stop-opacity="0.01"/>
</linearGradient>
<linearGradient id="paint2_linear_0_4933" x1="55.0001" y1="139.917" x2="64.4762" y2="139.917" gradientUnits="userSpaceOnUse">
<stop stop-color="white" stop-opacity="0.01"/>
<stop offset="0.222178" stop-color="#BABABA"/>
<stop offset="0.54678" stop-color="white" stop-opacity="0.01"/>
<stop offset="1" stop-color="white" stop-opacity="0.01"/>
</linearGradient>
<clipPath id="clip0_0_4933">
<rect width="149" height="122" fill="white" transform="translate(109.432 232.431)"/>
</clipPath>
<clipPath id="clip1_0_4933">
<rect width="131" height="30" fill="white" transform="translate(118.432 372.431)"/>
</clipPath>
</defs>
</svg>
