<svg width="836" height="1318" viewBox="0 0 836 1318" fill="none" xmlns="http://www.w3.org/2000/svg">
<g id="Group 30">
<g id="Group 2">
<g id="iPhone-X-Mockup">
<g id="phone">
<g id="body" filter="url(#filter0_d_0_4910)">
<path fill-rule="evenodd" clip-rule="evenodd" d="M176.416 110H558.883C595.563 110 625.299 138.471 625.299 173.591V1044.13C625.299 1079.25 595.563 1107.72 558.883 1107.72H176.416C139.736 1107.72 110 1079.25 110 1044.13V173.591C110 138.471 139.736 110 176.416 110Z" fill="#213648"/>
</g>
<g id="frame">
<path id="reflect-frame-top" opacity="0.595562" fill-rule="evenodd" clip-rule="evenodd" d="M560.361 108.861H174.709C156.704 109.959 140.099 118.175 124.894 133.509C134.672 124.973 152.114 113.55 175.174 113.55C175.174 113.55 544.524 113.55 559.897 113.55C582.957 113.55 600.398 124.973 610.177 133.509C594.972 118.175 578.366 109.959 560.361 108.861Z" fill="url(#paint0_linear_0_4910)" fill-opacity="0.65"/>
<path id="reflect-frame-right" opacity="0.75" fill-rule="evenodd" clip-rule="evenodd" d="M614.863 1034.2V178.825C614.863 155.874 606.428 147.39 601.396 141.942C596.365 136.494 596.15 133.716 603.38 137.829C610.61 141.942 625.071 153.922 625.071 178.825V1034.2C625.071 1059.11 610.61 1071.09 603.38 1075.2C596.15 1079.31 596.365 1076.53 601.396 1071.09C606.428 1065.64 614.863 1057.15 614.863 1034.2Z" fill="url(#paint1_linear_0_4910)"/>
<path id="reflect-frame-left" opacity="0.75" fill-rule="evenodd" clip-rule="evenodd" d="M120.208 1034.2V178.825C120.208 155.874 128.643 147.39 133.675 141.942C138.707 136.494 138.921 133.716 131.691 137.829C124.461 141.942 110 153.922 110 178.825V1034.2C110 1059.11 124.461 1071.09 131.691 1075.2C138.921 1079.31 138.707 1076.53 133.675 1071.09C128.643 1065.64 120.208 1057.15 120.208 1034.2Z" fill="url(#paint2_linear_0_4910)"/>
</g>
<g id="controls">
<path id="vol+" fill-rule="evenodd" clip-rule="evenodd" d="M104.864 315.974C104.864 313.765 106.655 311.974 108.864 311.974H110.793C113.002 311.974 114.793 313.765 114.793 315.974V436.675C114.793 438.885 113.002 440.675 110.793 440.675H108.864C106.655 440.675 104.864 438.885 104.864 436.675V315.974Z" fill="#2E423C"/>
<path id="power" fill-rule="evenodd" clip-rule="evenodd" d="M619.935 420.948C619.935 418.738 621.726 416.948 623.935 416.948H625.864C628.073 416.948 629.864 418.738 629.864 420.948V506.848C629.864 509.057 628.073 510.848 625.864 510.848H623.935C621.726 510.848 619.935 509.057 619.935 506.848V420.948Z" fill="#2E423C"/>
</g>
</g>
<g id="Screen" clip-path="url(#clip0_0_4910)">
<path id="Screen Mask" fill-rule="evenodd" clip-rule="evenodd" d="M322.216 133.75L173.404 133.75C151.195 133.75 135.013 148.877 135.013 168.633V1013.41C135.013 1039.17 160.017 1062 188.291 1062H546.957C574.193 1062 600.235 1038.99 600.235 1013.41V170.916C600.235 147.237 582.656 133.891 561.844 133.75L410.672 133.75C410.1 133.844 399.715 138.113 395.326 148.877C390.937 159.64 382.106 168.22 372.437 168.22H361.207C356.611 168.22 344.512 163.76 338.385 148.877C332.258 133.993 322.789 133.844 322.216 133.75Z" fill="white"/>
<mask id="mask0_0_4910" style="mask-type:luminance" maskUnits="userSpaceOnUse" x="135" y="133" width="466" height="929">
<path id="Screen Mask_2" fill-rule="evenodd" clip-rule="evenodd" d="M322.216 133.75L173.404 133.75C151.195 133.75 135.013 148.877 135.013 168.633V1013.41C135.013 1039.17 160.017 1062 188.291 1062H546.957C574.193 1062 600.235 1038.99 600.235 1013.41V170.916C600.235 147.237 582.656 133.891 561.844 133.75L410.672 133.75C410.1 133.844 399.715 138.113 395.326 148.877C390.937 159.64 382.106 168.22 372.437 168.22H361.207C356.611 168.22 344.512 163.76 338.385 148.877C332.258 133.993 322.789 133.844 322.216 133.75Z" fill="white"/>
</mask>
<g mask="url(#mask0_0_4910)">
<rect id="Rectangle" x="134.864" y="133.75" width="466" height="930" fill="url(#paint3_linear_0_4910)"/>
<path id="12:49" d="M293.872 390.861V356.205H285.616V350.925C288.262 350.925 290.395 350.68 292.016 350.189C293.659 349.677 294.886 348.952 295.696 348.013C296.507 347.053 296.987 345.912 297.136 344.589H303.344V390.861H293.872ZM313.855 390.861V386.253V383.885C313.855 381.538 314.293 379.512 315.167 377.805C316.042 376.077 317.194 374.584 318.623 373.325C320.074 372.045 321.653 370.925 323.359 369.965C325.087 369.005 326.815 368.098 328.543 367.245C330.271 366.392 331.85 365.538 333.279 364.685C334.73 363.81 335.893 362.84 336.767 361.773C337.642 360.706 338.079 359.448 338.079 357.997C338.079 356.141 337.429 354.626 336.127 353.453C334.847 352.28 333.087 351.693 330.847 351.693C328.522 351.693 326.549 352.365 324.927 353.709C323.306 355.053 322.303 357.08 321.919 359.789H312.991C313.034 356.845 313.717 354.178 315.039 351.789C316.383 349.378 318.389 347.469 321.055 346.061C323.722 344.653 327.071 343.949 331.103 343.949C334.559 343.949 337.535 344.536 340.031 345.709C342.549 346.882 344.49 348.514 345.855 350.605C347.221 352.696 347.903 355.138 347.903 357.933C347.903 360.258 347.477 362.264 346.623 363.949C345.77 365.634 344.639 367.074 343.231 368.269C341.823 369.464 340.277 370.509 338.591 371.405C336.906 372.301 335.221 373.133 333.535 373.901C331.871 374.669 330.335 375.458 328.927 376.269C327.519 377.058 326.389 377.954 325.535 378.957C324.682 379.96 324.255 381.165 324.255 382.573V382.989H347.839V390.861H313.855ZM364.272 358.573V368.589H354.032V358.573H364.272ZM364.272 380.685V390.669H354.032V380.685H364.272ZM391.767 344.589H400.951V372.781H408.087V380.621H400.951V390.861H391.959L391.991 380.621H370.679V372.941L391.767 344.589ZM379.319 372.781H391.991V355.821L379.319 372.781ZM429.735 391.565C426.855 391.565 424.167 391.01 421.671 389.901C419.175 388.792 417.137 387.234 415.559 385.229C413.98 383.202 413.095 380.834 412.903 378.125H421.799C422.183 379.917 423.036 381.378 424.359 382.509C425.681 383.618 427.345 384.173 429.351 384.173C431.569 384.173 433.511 383.65 435.175 382.605C436.86 381.56 438.119 379.896 438.951 377.613C439.804 375.33 440.103 372.344 439.847 368.653C439.249 369.784 438.417 370.776 437.351 371.629C436.305 372.461 435.079 373.112 433.671 373.581C432.263 374.029 430.695 374.253 428.967 374.253C425.831 374.253 423.047 373.666 420.615 372.493C418.204 371.298 416.305 369.613 414.919 367.437C413.553 365.24 412.871 362.637 412.871 359.629C412.871 356.6 413.596 353.901 415.047 351.533C416.497 349.165 418.524 347.309 421.127 345.965C423.729 344.621 426.78 343.949 430.279 343.949C434.204 343.949 437.585 344.888 440.423 346.765C443.281 348.621 445.468 351.266 446.983 354.701C448.519 358.114 449.287 362.136 449.287 366.765C449.287 372.29 448.497 376.898 446.919 380.589C445.361 384.258 443.121 387.01 440.199 388.845C437.276 390.658 433.788 391.565 429.735 391.565ZM430.567 366.829C431.868 366.829 433.127 366.541 434.343 365.965C435.58 365.368 436.593 364.621 437.383 363.725C438.172 362.829 438.567 361.901 438.567 360.941C438.588 358.872 438.257 357.101 437.575 355.629C436.913 354.136 435.975 352.994 434.759 352.205C433.564 351.416 432.167 351.021 430.567 351.021C429.095 351.021 427.783 351.362 426.631 352.045C425.479 352.728 424.572 353.688 423.911 354.925C423.249 356.162 422.919 357.592 422.919 359.213C422.919 361.624 423.623 363.501 425.031 364.845C426.439 366.168 428.284 366.829 430.567 366.829Z" fill="white"/>
</g>
</g>
</g>
</g>
<g id="Group 29" clip-path="url(#clip1_0_4910)">
<g id="Rectangle_2" filter="url(#filter1_d_0_4910)">
<rect x="148.864" y="442.861" width="436" height="174" rx="5" fill="#FBFCFE"/>
</g>
<g id="Group 28" clip-path="url(#clip2_0_4910)">
<path id="PayAPI" d="M182.484 494.861V480.401H187.804C188.858 480.401 189.801 480.584 190.634 480.951C191.468 481.311 192.124 481.844 192.604 482.551C193.091 483.258 193.334 484.121 193.334 485.141C193.334 486.101 193.121 486.921 192.694 487.601C192.268 488.281 191.668 488.801 190.894 489.161C190.128 489.521 189.224 489.701 188.184 489.701H185.424V494.861H182.484ZM185.394 487.441H188.104C188.838 487.441 189.438 487.208 189.904 486.741C190.371 486.268 190.604 485.684 190.604 484.991C190.604 484.271 190.358 483.701 189.864 483.281C189.371 482.854 188.771 482.641 188.064 482.641H185.394V487.441ZM197.888 495.061C197.228 495.061 196.634 494.938 196.108 494.691C195.581 494.444 195.164 494.088 194.858 493.621C194.551 493.148 194.398 492.574 194.398 491.901C194.398 490.768 194.821 489.908 195.668 489.321C196.514 488.728 197.851 488.421 199.678 488.401L200.968 488.381V487.761C200.968 487.288 200.828 486.924 200.548 486.671C200.274 486.411 199.848 486.284 199.268 486.291C198.841 486.298 198.434 486.398 198.048 486.591C197.668 486.784 197.408 487.121 197.268 487.601H194.838C194.878 486.854 195.094 486.241 195.488 485.761C195.881 485.274 196.414 484.914 197.088 484.681C197.768 484.441 198.538 484.321 199.398 484.321C200.458 484.321 201.308 484.454 201.948 484.721C202.588 484.981 203.051 485.358 203.338 485.851C203.624 486.338 203.768 486.918 203.768 487.591V494.861H201.328L201.088 493.081C200.734 493.828 200.291 494.344 199.758 494.631C199.231 494.918 198.608 495.061 197.888 495.061ZM198.868 493.141C199.134 493.141 199.391 493.094 199.638 493.001C199.891 492.901 200.114 492.771 200.308 492.611C200.508 492.444 200.668 492.258 200.788 492.051C200.908 491.844 200.968 491.631 200.968 491.411V489.881L199.918 489.901C199.431 489.908 198.978 489.968 198.558 490.081C198.138 490.188 197.798 490.364 197.538 490.611C197.284 490.858 197.158 491.191 197.158 491.611C197.158 492.091 197.324 492.468 197.658 492.741C197.991 493.008 198.394 493.141 198.868 493.141ZM207.591 498.161C206.885 498.161 206.385 498.101 206.091 497.981C205.805 497.868 205.661 497.811 205.661 497.811V495.951L206.681 495.991C207.128 496.018 207.488 495.994 207.761 495.921C208.035 495.854 208.241 495.764 208.381 495.651C208.528 495.538 208.631 495.418 208.691 495.291C208.751 495.171 208.795 495.074 208.821 495.001L209.011 494.431L204.991 484.521H207.881L210.361 491.261L212.871 484.521H215.721L211.531 494.921C211.171 495.801 210.791 496.474 210.391 496.941C209.991 497.408 209.558 497.728 209.091 497.901C208.631 498.074 208.131 498.161 207.591 498.161ZM215.321 494.861L220.501 480.401H223.581L228.751 494.861H225.841L224.661 491.511H219.461L218.251 494.861H215.321ZM220.111 488.961H223.961L222.051 483.221L220.111 488.961ZM230.922 494.861V480.401H236.242C237.295 480.401 238.238 480.584 239.072 480.951C239.905 481.311 240.562 481.844 241.042 482.551C241.528 483.258 241.772 484.121 241.772 485.141C241.772 486.101 241.558 486.921 241.132 487.601C240.705 488.281 240.105 488.801 239.332 489.161C238.565 489.521 237.662 489.701 236.622 489.701H233.862V494.861H230.922ZM233.832 487.441H236.542C237.275 487.441 237.875 487.208 238.342 486.741C238.808 486.268 239.042 485.684 239.042 484.991C239.042 484.271 238.795 483.701 238.302 483.281C237.808 482.854 237.208 482.641 236.502 482.641H233.832V487.441ZM243.969 480.401H246.879V494.861H243.969V480.401Z" fill="#BA4270"/>
<path id="Just Now" opacity="0.5" d="M476.082 491.451C476.082 492.218 475.996 492.871 475.822 493.411C475.649 493.951 475.339 494.361 474.892 494.641C474.452 494.921 473.826 495.061 473.012 495.061C472.499 495.061 472.016 495.001 471.562 494.881C471.116 494.761 470.819 494.671 470.672 494.611L470.802 492.841C471.009 492.914 471.246 493.008 471.512 493.121C471.786 493.228 472.122 493.281 472.522 493.281C473.176 493.281 473.622 493.101 473.862 492.741C474.109 492.381 474.232 491.774 474.232 490.921V480.401H476.082V491.451ZM482.946 495.061C482.406 495.054 481.896 494.978 481.416 494.831C480.942 494.678 480.522 494.454 480.156 494.161C479.789 493.868 479.499 493.504 479.286 493.071C479.079 492.631 478.976 492.121 478.976 491.541V484.521H480.826V491.351C480.826 492.024 481.032 492.571 481.446 492.991C481.866 493.411 482.496 493.621 483.336 493.621C484.096 493.621 484.706 493.424 485.166 493.031C485.632 492.631 485.866 492.038 485.866 491.251V484.521H487.706V494.861H486.236L486.046 492.881C485.919 493.401 485.702 493.821 485.396 494.141C485.096 494.461 484.732 494.698 484.306 494.851C483.886 494.998 483.432 495.068 482.946 495.061ZM494.261 495.061C493.541 495.061 492.871 494.951 492.251 494.731C491.638 494.504 491.128 494.154 490.721 493.681C490.314 493.201 490.058 492.591 489.951 491.851H491.631C491.724 492.258 491.891 492.598 492.131 492.871C492.378 493.138 492.684 493.341 493.051 493.481C493.418 493.614 493.818 493.681 494.251 493.681C494.944 493.681 495.504 493.551 495.931 493.291C496.358 493.031 496.571 492.631 496.571 492.091C496.571 491.711 496.458 491.408 496.231 491.181C496.011 490.948 495.668 490.778 495.201 490.671L493.061 490.141C492.228 489.941 491.561 489.628 491.061 489.201C490.561 488.774 490.311 488.178 490.311 487.411C490.304 486.804 490.448 486.271 490.741 485.811C491.034 485.351 491.474 484.988 492.061 484.721C492.648 484.454 493.378 484.321 494.251 484.321C495.371 484.321 496.274 484.574 496.961 485.081C497.654 485.581 498.014 486.318 498.041 487.291H496.411C496.344 486.798 496.121 486.408 495.741 486.121C495.368 485.828 494.864 485.681 494.231 485.681C493.571 485.681 493.034 485.814 492.621 486.081C492.208 486.341 492.001 486.748 492.001 487.301C492.001 487.668 492.148 487.958 492.441 488.171C492.734 488.378 493.168 488.551 493.741 488.691L495.811 489.211C496.291 489.338 496.684 489.504 496.991 489.711C497.304 489.918 497.551 490.148 497.731 490.401C497.918 490.654 498.048 490.921 498.121 491.201C498.201 491.474 498.241 491.738 498.241 491.991C498.241 492.624 498.081 493.171 497.761 493.631C497.448 494.084 496.994 494.438 496.401 494.691C495.814 494.938 495.101 495.061 494.261 495.061ZM505.864 485.871H503.534V492.301C503.534 492.668 503.571 492.938 503.644 493.111C503.724 493.278 503.854 493.384 504.034 493.431C504.221 493.478 504.474 493.501 504.794 493.501H505.924V494.741C505.797 494.788 505.604 494.828 505.344 494.861C505.091 494.894 504.774 494.911 504.394 494.911C503.681 494.911 503.127 494.814 502.734 494.621C502.341 494.428 502.064 494.141 501.904 493.761C501.751 493.381 501.674 492.914 501.674 492.361V485.871H499.994V484.521H501.724L502.174 481.511H503.534V484.511H505.864V485.871ZM522.92 480.401H524.77V494.861H523.12L515.36 483.461V494.861H513.51V480.401H515.28L522.92 491.641V480.401ZM532.182 495.061C531.228 495.061 530.395 494.858 529.682 494.451C528.968 494.038 528.415 493.434 528.022 492.641C527.628 491.848 527.432 490.878 527.432 489.731C527.432 488.651 527.615 487.704 527.982 486.891C528.348 486.078 528.885 485.448 529.592 485.001C530.305 484.548 531.168 484.321 532.182 484.321C533.135 484.321 533.962 484.531 534.662 484.951C535.368 485.364 535.915 485.974 536.302 486.781C536.688 487.588 536.882 488.571 536.882 489.731C536.882 490.784 536.702 491.711 536.342 492.511C535.988 493.311 535.462 493.938 534.762 494.391C534.068 494.838 533.208 495.061 532.182 495.061ZM532.182 493.601C532.802 493.601 533.325 493.444 533.752 493.131C534.178 492.818 534.502 492.368 534.722 491.781C534.942 491.194 535.052 490.498 535.052 489.691C535.052 488.951 534.955 488.288 534.762 487.701C534.568 487.108 534.258 486.638 533.832 486.291C533.412 485.944 532.862 485.771 532.182 485.771C531.555 485.771 531.025 485.928 530.592 486.241C530.158 486.548 529.828 486.994 529.602 487.581C529.382 488.168 529.272 488.871 529.272 489.691C529.272 490.418 529.372 491.078 529.572 491.671C529.772 492.264 530.085 492.734 530.512 493.081C530.938 493.428 531.495 493.601 532.182 493.601ZM552.531 484.521L549.401 494.861H547.581L545.221 487.231L542.981 494.861H541.171L537.981 484.521H539.691L542.061 492.471H542.221L544.551 484.521H545.951L548.371 492.451H548.531L550.801 484.521H552.531Z" fill="#36536B"/>
</g>
<path id="The payment has been" d="M181.324 514.101V512.401H192.264V514.101H187.854V526.861H185.994V514.101H181.324ZM194.269 526.861V512.001H196.069V518.041C196.243 517.754 196.476 517.488 196.769 517.241C197.063 516.988 197.419 516.784 197.839 516.631C198.259 516.471 198.746 516.391 199.299 516.391C199.973 516.391 200.583 516.518 201.129 516.771C201.676 517.018 202.109 517.371 202.429 517.831C202.749 518.291 202.909 518.838 202.909 519.471V526.861H201.059V519.841C201.059 519.221 200.846 518.744 200.419 518.411C199.999 518.071 199.449 517.901 198.769 517.901C198.309 517.901 197.876 517.978 197.469 518.131C197.063 518.278 196.733 518.504 196.479 518.811C196.233 519.111 196.109 519.494 196.109 519.961V526.861H194.269ZM207.113 522.121C207.113 522.774 207.219 523.368 207.433 523.901C207.653 524.428 207.983 524.848 208.423 525.161C208.869 525.474 209.426 525.631 210.093 525.631C210.753 525.631 211.319 525.478 211.793 525.171C212.273 524.864 212.579 524.421 212.713 523.841H214.463C214.336 524.541 214.056 525.131 213.623 525.611C213.189 526.091 212.666 526.454 212.053 526.701C211.439 526.941 210.799 527.061 210.133 527.061C209.166 527.061 208.316 526.851 207.583 526.431C206.849 526.011 206.276 525.408 205.863 524.621C205.449 523.834 205.243 522.891 205.243 521.791C205.243 520.704 205.429 519.751 205.803 518.931C206.176 518.111 206.716 517.471 207.423 517.011C208.136 516.551 208.993 516.321 209.993 516.321C210.966 516.321 211.789 516.531 212.463 516.951C213.136 517.371 213.646 517.964 213.993 518.731C214.346 519.491 214.523 520.394 214.523 521.441V522.121H207.113ZM207.123 520.871H212.743C212.743 520.278 212.643 519.744 212.443 519.271C212.243 518.791 211.936 518.414 211.523 518.141C211.116 517.861 210.603 517.721 209.983 517.721C209.336 517.721 208.799 517.878 208.373 518.191C207.953 518.498 207.636 518.894 207.423 519.381C207.216 519.861 207.116 520.358 207.123 520.871ZM221.535 530.081V516.521H223.375L223.395 518.321C223.515 518.108 223.668 517.884 223.855 517.651C224.048 517.418 224.282 517.201 224.555 517.001C224.835 516.801 225.158 516.638 225.525 516.511C225.898 516.384 226.322 516.321 226.795 516.321C227.622 516.321 228.348 516.511 228.975 516.891C229.608 517.264 230.102 517.838 230.455 518.611C230.808 519.384 230.985 520.364 230.985 521.551C230.985 522.738 230.812 523.741 230.465 524.561C230.125 525.374 229.632 525.994 228.985 526.421C228.338 526.848 227.558 527.061 226.645 527.061C226.185 527.061 225.775 526.994 225.415 526.861C225.062 526.734 224.752 526.568 224.485 526.361C224.225 526.148 224.005 525.921 223.825 525.681C223.652 525.441 223.508 525.211 223.395 524.991V530.081H221.535ZM226.295 525.621C227.148 525.621 227.845 525.298 228.385 524.651C228.925 523.998 229.195 522.984 229.195 521.611C229.195 520.431 228.948 519.494 228.455 518.801C227.962 518.108 227.242 517.761 226.295 517.761C225.335 517.761 224.608 518.118 224.115 518.831C223.622 519.538 223.375 520.464 223.375 521.611C223.375 522.351 223.485 523.024 223.705 523.631C223.925 524.238 224.252 524.721 224.685 525.081C225.118 525.441 225.655 525.621 226.295 525.621ZM236.133 527.061C235.466 527.061 234.876 526.944 234.363 526.711C233.85 526.471 233.446 526.128 233.153 525.681C232.866 525.234 232.723 524.694 232.723 524.061C232.723 522.914 233.123 522.061 233.923 521.501C234.723 520.941 236.006 520.641 237.773 520.601L239.623 520.551V519.741C239.623 519.108 239.433 518.608 239.053 518.241C238.673 517.868 238.083 517.681 237.283 517.681C236.69 517.688 236.166 517.828 235.713 518.101C235.266 518.374 234.976 518.821 234.843 519.441H233.213C233.253 518.768 233.443 518.201 233.783 517.741C234.123 517.274 234.596 516.921 235.203 516.681C235.816 516.441 236.54 516.321 237.373 516.321C238.273 516.321 239.02 516.448 239.613 516.701C240.213 516.954 240.66 517.328 240.953 517.821C241.253 518.314 241.403 518.921 241.403 519.641V526.861H239.823L239.693 524.921C239.293 525.728 238.783 526.288 238.163 526.601C237.55 526.908 236.873 527.061 236.133 527.061ZM236.693 525.731C237.04 525.731 237.383 525.668 237.723 525.541C238.07 525.414 238.386 525.244 238.673 525.031C238.96 524.811 239.186 524.568 239.353 524.301C239.526 524.028 239.616 523.748 239.623 523.461V521.691L238.083 521.721C237.296 521.734 236.636 521.814 236.103 521.961C235.576 522.108 235.18 522.338 234.913 522.651C234.653 522.964 234.523 523.374 234.523 523.881C234.523 524.461 234.723 524.914 235.123 525.241C235.53 525.568 236.053 525.731 236.693 525.731ZM245.25 530.161C244.644 530.161 244.227 530.118 244 530.031C243.774 529.944 243.66 529.901 243.66 529.901V528.701L244.71 528.721C245.097 528.734 245.417 528.708 245.67 528.641C245.924 528.574 246.127 528.484 246.28 528.371C246.434 528.258 246.55 528.131 246.63 527.991C246.717 527.851 246.787 527.718 246.84 527.591L247.2 526.611L243.16 516.521H245.03L248.08 524.501L251.11 516.521H252.92L248.56 527.641C248.294 528.294 247.994 528.804 247.66 529.171C247.334 529.538 246.967 529.794 246.56 529.941C246.16 530.088 245.724 530.161 245.25 530.161ZM254.894 526.861V516.521H256.674V518.021C256.961 517.568 257.354 517.171 257.854 516.831C258.354 516.491 259.004 516.321 259.804 516.321C260.178 516.321 260.558 516.384 260.944 516.511C261.338 516.638 261.698 516.828 262.024 517.081C262.351 517.334 262.604 517.644 262.784 518.011C263.104 517.504 263.538 517.098 264.084 516.791C264.631 516.478 265.248 516.321 265.934 516.321C266.294 516.321 266.671 516.378 267.064 516.491C267.458 516.598 267.821 516.791 268.154 517.071C268.494 517.344 268.771 517.728 268.984 518.221C269.198 518.708 269.304 519.334 269.304 520.101V526.861H267.444V520.281C267.444 519.654 267.344 519.171 267.144 518.831C266.944 518.484 266.681 518.241 266.354 518.101C266.034 517.961 265.691 517.891 265.324 517.891C265.004 517.891 264.664 517.954 264.304 518.081C263.944 518.208 263.638 518.421 263.384 518.721C263.131 519.021 263.004 519.431 263.004 519.951V526.861H261.164V519.741C261.164 519.334 261.054 518.994 260.834 518.721C260.621 518.448 260.351 518.241 260.024 518.101C259.704 517.961 259.384 517.891 259.064 517.891C258.711 517.891 258.354 517.961 257.994 518.101C257.641 518.241 257.341 518.464 257.094 518.771C256.854 519.071 256.734 519.464 256.734 519.951V526.861H254.894ZM273.519 522.121C273.519 522.774 273.626 523.368 273.839 523.901C274.059 524.428 274.389 524.848 274.829 525.161C275.276 525.474 275.832 525.631 276.499 525.631C277.159 525.631 277.726 525.478 278.199 525.171C278.679 524.864 278.986 524.421 279.119 523.841H280.869C280.742 524.541 280.462 525.131 280.029 525.611C279.596 526.091 279.072 526.454 278.459 526.701C277.846 526.941 277.206 527.061 276.539 527.061C275.572 527.061 274.722 526.851 273.989 526.431C273.256 526.011 272.682 525.408 272.269 524.621C271.856 523.834 271.649 522.891 271.649 521.791C271.649 520.704 271.836 519.751 272.209 518.931C272.582 518.111 273.122 517.471 273.829 517.011C274.542 516.551 275.399 516.321 276.399 516.321C277.372 516.321 278.196 516.531 278.869 516.951C279.542 517.371 280.052 517.964 280.399 518.731C280.752 519.491 280.929 520.394 280.929 521.441V522.121H273.519ZM273.529 520.871H279.149C279.149 520.278 279.049 519.744 278.849 519.271C278.649 518.791 278.342 518.414 277.929 518.141C277.522 517.861 277.009 517.721 276.389 517.721C275.742 517.721 275.206 517.878 274.779 518.191C274.359 518.498 274.042 518.894 273.829 519.381C273.622 519.861 273.522 520.358 273.529 520.871ZM283.468 526.861V516.521H285.258V518.021C285.425 517.734 285.655 517.464 285.948 517.211C286.248 516.958 286.608 516.754 287.028 516.601C287.455 516.448 287.945 516.371 288.498 516.371C289.152 516.371 289.752 516.501 290.298 516.761C290.852 517.021 291.292 517.428 291.618 517.981C291.952 518.528 292.118 519.234 292.118 520.101V526.861H290.268V520.281C290.268 519.474 290.055 518.878 289.628 518.491C289.208 518.098 288.662 517.901 287.988 517.901C287.522 517.901 287.085 517.978 286.678 518.131C286.272 518.278 285.942 518.504 285.688 518.811C285.435 519.111 285.308 519.491 285.308 519.951V526.861H283.468ZM299.776 517.871H297.446V524.301C297.446 524.668 297.483 524.938 297.556 525.111C297.636 525.278 297.766 525.384 297.946 525.431C298.133 525.478 298.386 525.501 298.706 525.501H299.836V526.741C299.71 526.788 299.516 526.828 299.256 526.861C299.003 526.894 298.686 526.911 298.306 526.911C297.593 526.911 297.04 526.814 296.646 526.621C296.253 526.428 295.976 526.141 295.816 525.761C295.663 525.381 295.586 524.914 295.586 524.361V517.871H293.906V516.521H295.636L296.086 513.511H297.446V516.511H299.776V517.871ZM307.043 526.861V512.001H308.843V518.041C309.016 517.754 309.249 517.488 309.543 517.241C309.836 516.988 310.193 516.784 310.613 516.631C311.033 516.471 311.519 516.391 312.073 516.391C312.746 516.391 313.356 516.518 313.903 516.771C314.449 517.018 314.883 517.371 315.203 517.831C315.523 518.291 315.683 518.838 315.683 519.471V526.861H313.833V519.841C313.833 519.221 313.619 518.744 313.193 518.411C312.773 518.071 312.223 517.901 311.543 517.901C311.083 517.901 310.649 517.978 310.243 518.131C309.836 518.278 309.506 518.504 309.253 518.811C309.006 519.111 308.883 519.494 308.883 519.961V526.861H307.043ZM321.387 527.061C320.72 527.061 320.13 526.944 319.617 526.711C319.104 526.471 318.7 526.128 318.407 525.681C318.12 525.234 317.977 524.694 317.977 524.061C317.977 522.914 318.377 522.061 319.177 521.501C319.977 520.941 321.26 520.641 323.027 520.601L324.877 520.551V519.741C324.877 519.108 324.687 518.608 324.307 518.241C323.927 517.868 323.337 517.681 322.537 517.681C321.944 517.688 321.42 517.828 320.967 518.101C320.52 518.374 320.23 518.821 320.097 519.441H318.467C318.507 518.768 318.697 518.201 319.037 517.741C319.377 517.274 319.85 516.921 320.457 516.681C321.07 516.441 321.794 516.321 322.627 516.321C323.527 516.321 324.274 516.448 324.867 516.701C325.467 516.954 325.914 517.328 326.207 517.821C326.507 518.314 326.657 518.921 326.657 519.641V526.861H325.077L324.947 524.921C324.547 525.728 324.037 526.288 323.417 526.601C322.804 526.908 322.127 527.061 321.387 527.061ZM321.947 525.731C322.294 525.731 322.637 525.668 322.977 525.541C323.324 525.414 323.64 525.244 323.927 525.031C324.214 524.811 324.44 524.568 324.607 524.301C324.78 524.028 324.87 523.748 324.877 523.461V521.691L323.337 521.721C322.55 521.734 321.89 521.814 321.357 521.961C320.83 522.108 320.434 522.338 320.167 522.651C319.907 522.964 319.777 523.374 319.777 523.881C319.777 524.461 319.977 524.914 320.377 525.241C320.784 525.568 321.307 525.731 321.947 525.731ZM333.31 527.061C332.59 527.061 331.92 526.951 331.3 526.731C330.687 526.504 330.177 526.154 329.77 525.681C329.364 525.201 329.107 524.591 329 523.851H330.68C330.774 524.258 330.94 524.598 331.18 524.871C331.427 525.138 331.734 525.341 332.1 525.481C332.467 525.614 332.867 525.681 333.3 525.681C333.994 525.681 334.554 525.551 334.98 525.291C335.407 525.031 335.62 524.631 335.62 524.091C335.62 523.711 335.507 523.408 335.28 523.181C335.06 522.948 334.717 522.778 334.25 522.671L332.11 522.141C331.277 521.941 330.61 521.628 330.11 521.201C329.61 520.774 329.36 520.178 329.36 519.411C329.354 518.804 329.497 518.271 329.79 517.811C330.084 517.351 330.524 516.988 331.11 516.721C331.697 516.454 332.427 516.321 333.3 516.321C334.42 516.321 335.324 516.574 336.01 517.081C336.704 517.581 337.064 518.318 337.09 519.291H335.46C335.394 518.798 335.17 518.408 334.79 518.121C334.417 517.828 333.914 517.681 333.28 517.681C332.62 517.681 332.084 517.814 331.67 518.081C331.257 518.341 331.05 518.748 331.05 519.301C331.05 519.668 331.197 519.958 331.49 520.171C331.784 520.378 332.217 520.551 332.79 520.691L334.86 521.211C335.34 521.338 335.734 521.504 336.04 521.711C336.354 521.918 336.6 522.148 336.78 522.401C336.967 522.654 337.097 522.921 337.17 523.201C337.25 523.474 337.29 523.738 337.29 523.991C337.29 524.624 337.13 525.171 336.81 525.631C336.497 526.084 336.044 526.438 335.45 526.691C334.864 526.938 334.15 527.061 333.31 527.061ZM349.516 527.061C348.909 527.061 348.396 526.981 347.976 526.821C347.563 526.661 347.223 526.458 346.956 526.211C346.689 525.958 346.483 525.701 346.336 525.441C346.189 525.174 346.083 524.941 346.016 524.741L345.816 526.861H344.406V512.001H346.266V518.161C346.353 517.988 346.483 517.798 346.656 517.591C346.836 517.384 347.066 517.184 347.346 516.991C347.626 516.798 347.956 516.638 348.336 516.511C348.723 516.384 349.163 516.321 349.656 516.321C350.949 516.321 351.976 516.771 352.736 517.671C353.503 518.571 353.886 519.898 353.886 521.651C353.886 522.738 353.723 523.688 353.396 524.501C353.069 525.308 352.583 525.938 351.936 526.391C351.289 526.838 350.483 527.061 349.516 527.061ZM349.186 525.641C350.026 525.641 350.709 525.318 351.236 524.671C351.763 524.018 352.026 522.981 352.026 521.561C352.026 520.354 351.779 519.421 351.286 518.761C350.799 518.094 350.086 517.761 349.146 517.761C348.459 517.761 347.906 517.911 347.486 518.211C347.073 518.504 346.766 518.934 346.566 519.501C346.373 520.068 346.273 520.754 346.266 521.561C346.266 523.008 346.489 524.051 346.936 524.691C347.389 525.324 348.139 525.641 349.186 525.641ZM357.621 522.121C357.621 522.774 357.727 523.368 357.941 523.901C358.161 524.428 358.491 524.848 358.931 525.161C359.377 525.474 359.934 525.631 360.601 525.631C361.261 525.631 361.827 525.478 362.301 525.171C362.781 524.864 363.087 524.421 363.221 523.841H364.971C364.844 524.541 364.564 525.131 364.131 525.611C363.697 526.091 363.174 526.454 362.561 526.701C361.947 526.941 361.307 527.061 360.641 527.061C359.674 527.061 358.824 526.851 358.091 526.431C357.357 526.011 356.784 525.408 356.371 524.621C355.957 523.834 355.751 522.891 355.751 521.791C355.751 520.704 355.937 519.751 356.311 518.931C356.684 518.111 357.224 517.471 357.931 517.011C358.644 516.551 359.501 516.321 360.501 516.321C361.474 516.321 362.297 516.531 362.971 516.951C363.644 517.371 364.154 517.964 364.501 518.731C364.854 519.491 365.031 520.394 365.031 521.441V522.121H357.621ZM357.631 520.871H363.251C363.251 520.278 363.151 519.744 362.951 519.271C362.751 518.791 362.444 518.414 362.031 518.141C361.624 517.861 361.111 517.721 360.491 517.721C359.844 517.721 359.307 517.878 358.881 518.191C358.461 518.498 358.144 518.894 357.931 519.381C357.724 519.861 357.624 520.358 357.631 520.871ZM368.89 522.121C368.89 522.774 368.997 523.368 369.21 523.901C369.43 524.428 369.76 524.848 370.2 525.161C370.647 525.474 371.203 525.631 371.87 525.631C372.53 525.631 373.097 525.478 373.57 525.171C374.05 524.864 374.357 524.421 374.49 523.841H376.24C376.113 524.541 375.833 525.131 375.4 525.611C374.967 526.091 374.443 526.454 373.83 526.701C373.217 526.941 372.577 527.061 371.91 527.061C370.943 527.061 370.093 526.851 369.36 526.431C368.627 526.011 368.053 525.408 367.64 524.621C367.227 523.834 367.02 522.891 367.02 521.791C367.02 520.704 367.207 519.751 367.58 518.931C367.953 518.111 368.493 517.471 369.2 517.011C369.913 516.551 370.77 516.321 371.77 516.321C372.743 516.321 373.567 516.531 374.24 516.951C374.913 517.371 375.423 517.964 375.77 518.731C376.123 519.491 376.3 520.394 376.3 521.441V522.121H368.89ZM368.9 520.871H374.52C374.52 520.278 374.42 519.744 374.22 519.271C374.02 518.791 373.713 518.414 373.3 518.141C372.893 517.861 372.38 517.721 371.76 517.721C371.113 517.721 370.577 517.878 370.15 518.191C369.73 518.498 369.413 518.894 369.2 519.381C368.993 519.861 368.893 520.358 368.9 520.871ZM378.84 526.861V516.521H380.63V518.021C380.796 517.734 381.026 517.464 381.32 517.211C381.62 516.958 381.98 516.754 382.4 516.601C382.826 516.448 383.316 516.371 383.87 516.371C384.523 516.371 385.123 516.501 385.67 516.761C386.223 517.021 386.663 517.428 386.99 517.981C387.323 518.528 387.49 519.234 387.49 520.101V526.861H385.64V520.281C385.64 519.474 385.426 518.878 385 518.491C384.58 518.098 384.033 517.901 383.36 517.901C382.893 517.901 382.456 517.978 382.05 518.131C381.643 518.278 381.313 518.504 381.06 518.811C380.806 519.111 380.68 519.491 380.68 519.951V526.861H378.84ZM394.992 530.081V516.521H396.832L396.852 518.321C396.972 518.108 397.125 517.884 397.312 517.651C397.505 517.418 397.739 517.201 398.012 517.001C398.292 516.801 398.615 516.638 398.982 516.511C399.355 516.384 399.779 516.321 400.252 516.321C401.079 516.321 401.805 516.511 402.432 516.891C403.065 517.264 403.559 517.838 403.912 518.611C404.265 519.384 404.442 520.364 404.442 521.551C404.442 522.738 404.269 523.741 403.922 524.561C403.582 525.374 403.089 525.994 402.442 526.421C401.795 526.848 401.015 527.061 400.102 527.061C399.642 527.061 399.232 526.994 398.872 526.861C398.519 526.734 398.209 526.568 397.942 526.361C397.682 526.148 397.462 525.921 397.282 525.681C397.109 525.441 396.965 525.211 396.852 524.991V530.081H394.992ZM399.752 525.621C400.605 525.621 401.302 525.298 401.842 524.651C402.382 523.998 402.652 522.984 402.652 521.611C402.652 520.431 402.405 519.494 401.912 518.801C401.419 518.108 400.699 517.761 399.752 517.761C398.792 517.761 398.065 518.118 397.572 518.831C397.079 519.538 396.832 520.464 396.832 521.611C396.832 522.351 396.942 523.024 397.162 523.631C397.382 524.238 397.709 524.721 398.142 525.081C398.575 525.441 399.112 525.621 399.752 525.621ZM406.867 526.861V516.521H408.627V518.511C408.8 518.018 409.044 517.611 409.357 517.291C409.67 516.964 410.027 516.721 410.427 516.561C410.834 516.401 411.254 516.321 411.687 516.321C411.84 516.321 411.99 516.331 412.137 516.351C412.284 516.371 412.397 516.404 412.477 516.451V518.241C412.377 518.194 412.247 518.164 412.087 518.151C411.934 518.131 411.804 518.121 411.697 518.121C411.284 518.094 410.897 518.121 410.537 518.201C410.177 518.274 409.86 518.404 409.587 518.591C409.314 518.778 409.097 519.024 408.937 519.331C408.784 519.631 408.707 519.998 408.707 520.431V526.861H406.867ZM418.496 527.061C417.543 527.061 416.71 526.858 415.996 526.451C415.283 526.038 414.73 525.434 414.336 524.641C413.943 523.848 413.746 522.878 413.746 521.731C413.746 520.651 413.93 519.704 414.296 518.891C414.663 518.078 415.2 517.448 415.906 517.001C416.62 516.548 417.483 516.321 418.496 516.321C419.45 516.321 420.276 516.531 420.976 516.951C421.683 517.364 422.23 517.974 422.616 518.781C423.003 519.588 423.196 520.571 423.196 521.731C423.196 522.784 423.016 523.711 422.656 524.511C422.303 525.311 421.776 525.938 421.076 526.391C420.383 526.838 419.523 527.061 418.496 527.061ZM418.496 525.601C419.116 525.601 419.64 525.444 420.066 525.131C420.493 524.818 420.816 524.368 421.036 523.781C421.256 523.194 421.366 522.498 421.366 521.691C421.366 520.951 421.27 520.288 421.076 519.701C420.883 519.108 420.573 518.638 420.146 518.291C419.726 517.944 419.176 517.771 418.496 517.771C417.87 517.771 417.34 517.928 416.906 518.241C416.473 518.548 416.143 518.994 415.916 519.581C415.696 520.168 415.586 520.871 415.586 521.691C415.586 522.418 415.686 523.078 415.886 523.671C416.086 524.264 416.4 524.734 416.826 525.081C417.253 525.428 417.81 525.601 418.496 525.601ZM429.737 516.321C430.477 516.321 431.144 516.464 431.737 516.751C432.33 517.031 432.814 517.431 433.187 517.951C433.567 518.471 433.804 519.084 433.897 519.791H432.257C432.197 519.431 432.057 519.101 431.837 518.801C431.624 518.501 431.34 518.261 430.987 518.081C430.634 517.901 430.22 517.811 429.747 517.811C428.86 517.811 428.14 518.131 427.587 518.771C427.034 519.411 426.757 520.391 426.757 521.711C426.757 522.904 427.01 523.861 427.517 524.581C428.03 525.294 428.784 525.651 429.777 525.651C430.25 525.651 430.66 525.561 431.007 525.381C431.36 525.194 431.644 524.951 431.857 524.651C432.07 524.344 432.207 524.018 432.267 523.671H433.877C433.79 524.364 433.557 524.964 433.177 525.471C432.797 525.978 432.31 526.371 431.717 526.651C431.13 526.924 430.47 527.061 429.737 527.061C428.81 527.061 427.987 526.858 427.267 526.451C426.554 526.044 425.994 525.444 425.587 524.651C425.18 523.858 424.977 522.884 424.977 521.731C424.977 520.651 425.16 519.708 425.527 518.901C425.9 518.088 426.44 517.454 427.147 517.001C427.86 516.548 428.724 516.321 429.737 516.321ZM437.718 522.121C437.718 522.774 437.825 523.368 438.038 523.901C438.258 524.428 438.588 524.848 439.028 525.161C439.475 525.474 440.031 525.631 440.698 525.631C441.358 525.631 441.925 525.478 442.398 525.171C442.878 524.864 443.185 524.421 443.318 523.841H445.068C444.941 524.541 444.661 525.131 444.228 525.611C443.795 526.091 443.271 526.454 442.658 526.701C442.045 526.941 441.405 527.061 440.738 527.061C439.771 527.061 438.921 526.851 438.188 526.431C437.455 526.011 436.881 525.408 436.468 524.621C436.055 523.834 435.848 522.891 435.848 521.791C435.848 520.704 436.035 519.751 436.408 518.931C436.781 518.111 437.321 517.471 438.028 517.011C438.741 516.551 439.598 516.321 440.598 516.321C441.571 516.321 442.395 516.531 443.068 516.951C443.741 517.371 444.251 517.964 444.598 518.731C444.951 519.491 445.128 520.394 445.128 521.441V522.121H437.718ZM437.728 520.871H443.348C443.348 520.278 443.248 519.744 443.048 519.271C442.848 518.791 442.541 518.414 442.128 518.141C441.721 517.861 441.208 517.721 440.588 517.721C439.941 517.721 439.405 517.878 438.978 518.191C438.558 518.498 438.241 518.894 438.028 519.381C437.821 519.861 437.721 520.358 437.728 520.871ZM451.26 527.061C450.54 527.061 449.87 526.951 449.25 526.731C448.636 526.504 448.126 526.154 447.72 525.681C447.313 525.201 447.056 524.591 446.95 523.851H448.63C448.723 524.258 448.89 524.598 449.13 524.871C449.376 525.138 449.683 525.341 450.05 525.481C450.416 525.614 450.816 525.681 451.25 525.681C451.943 525.681 452.503 525.551 452.93 525.291C453.356 525.031 453.57 524.631 453.57 524.091C453.57 523.711 453.456 523.408 453.23 523.181C453.01 522.948 452.666 522.778 452.2 522.671L450.06 522.141C449.226 521.941 448.56 521.628 448.06 521.201C447.56 520.774 447.31 520.178 447.31 519.411C447.303 518.804 447.446 518.271 447.74 517.811C448.033 517.351 448.473 516.988 449.06 516.721C449.646 516.454 450.376 516.321 451.25 516.321C452.37 516.321 453.273 516.574 453.96 517.081C454.653 517.581 455.013 518.318 455.04 519.291H453.41C453.343 518.798 453.12 518.408 452.74 518.121C452.366 517.828 451.863 517.681 451.23 517.681C450.57 517.681 450.033 517.814 449.62 518.081C449.206 518.341 449 518.748 449 519.301C449 519.668 449.146 519.958 449.44 520.171C449.733 520.378 450.166 520.551 450.74 520.691L452.81 521.211C453.29 521.338 453.683 521.504 453.99 521.711C454.303 521.918 454.55 522.148 454.73 522.401C454.916 522.654 455.046 522.921 455.12 523.201C455.2 523.474 455.24 523.738 455.24 523.991C455.24 524.624 455.08 525.171 454.76 525.631C454.446 526.084 453.993 526.438 453.4 526.691C452.813 526.938 452.1 527.061 451.26 527.061ZM461.318 527.061C460.598 527.061 459.928 526.951 459.308 526.731C458.695 526.504 458.185 526.154 457.778 525.681C457.371 525.201 457.115 524.591 457.008 523.851H458.688C458.781 524.258 458.948 524.598 459.188 524.871C459.435 525.138 459.741 525.341 460.108 525.481C460.475 525.614 460.875 525.681 461.308 525.681C462.001 525.681 462.561 525.551 462.988 525.291C463.415 525.031 463.628 524.631 463.628 524.091C463.628 523.711 463.515 523.408 463.288 523.181C463.068 522.948 462.725 522.778 462.258 522.671L460.118 522.141C459.285 521.941 458.618 521.628 458.118 521.201C457.618 520.774 457.368 520.178 457.368 519.411C457.361 518.804 457.505 518.271 457.798 517.811C458.091 517.351 458.531 516.988 459.118 516.721C459.705 516.454 460.435 516.321 461.308 516.321C462.428 516.321 463.331 516.574 464.018 517.081C464.711 517.581 465.071 518.318 465.098 519.291H463.468C463.401 518.798 463.178 518.408 462.798 518.121C462.425 517.828 461.921 517.681 461.288 517.681C460.628 517.681 460.091 517.814 459.678 518.081C459.265 518.341 459.058 518.748 459.058 519.301C459.058 519.668 459.205 519.958 459.498 520.171C459.791 520.378 460.225 520.551 460.798 520.691L462.868 521.211C463.348 521.338 463.741 521.504 464.048 521.711C464.361 521.918 464.608 522.148 464.788 522.401C464.975 522.654 465.105 522.921 465.178 523.201C465.258 523.474 465.298 523.738 465.298 523.991C465.298 524.624 465.138 525.171 464.818 525.631C464.505 526.084 464.051 526.438 463.458 526.691C462.871 526.938 462.158 527.061 461.318 527.061ZM469.203 522.121C469.203 522.774 469.309 523.368 469.523 523.901C469.743 524.428 470.073 524.848 470.513 525.161C470.959 525.474 471.516 525.631 472.183 525.631C472.843 525.631 473.409 525.478 473.883 525.171C474.363 524.864 474.669 524.421 474.803 523.841H476.553C476.426 524.541 476.146 525.131 475.713 525.611C475.279 526.091 474.756 526.454 474.143 526.701C473.529 526.941 472.889 527.061 472.223 527.061C471.256 527.061 470.406 526.851 469.673 526.431C468.939 526.011 468.366 525.408 467.953 524.621C467.539 523.834 467.333 522.891 467.333 521.791C467.333 520.704 467.519 519.751 467.893 518.931C468.266 518.111 468.806 517.471 469.513 517.011C470.226 516.551 471.083 516.321 472.083 516.321C473.056 516.321 473.879 516.531 474.553 516.951C475.226 517.371 475.736 517.964 476.083 518.731C476.436 519.491 476.613 520.394 476.613 521.441V522.121H469.203ZM469.213 520.871H474.833C474.833 520.278 474.733 519.744 474.533 519.271C474.333 518.791 474.026 518.414 473.613 518.141C473.206 517.861 472.693 517.721 472.073 517.721C471.426 517.721 470.889 517.878 470.463 518.191C470.043 518.498 469.726 518.894 469.513 519.381C469.306 519.861 469.206 520.358 469.213 520.871ZM482.882 527.061C481.542 527.061 480.479 526.601 479.692 525.681C478.905 524.761 478.512 523.418 478.512 521.651C478.512 520.578 478.669 519.641 478.982 518.841C479.302 518.041 479.775 517.421 480.402 516.981C481.029 516.541 481.809 516.321 482.742 516.321C483.235 516.321 483.672 516.384 484.052 516.511C484.439 516.638 484.772 516.798 485.052 516.991C485.332 517.184 485.559 517.384 485.732 517.591C485.912 517.798 486.045 517.988 486.132 518.161V512.001H487.992V526.861H486.582L486.382 524.741C486.315 524.941 486.209 525.174 486.062 525.441C485.915 525.701 485.709 525.958 485.442 526.211C485.175 526.458 484.832 526.661 484.412 526.821C483.999 526.981 483.489 527.061 482.882 527.061ZM483.212 525.641C484.259 525.641 485.005 525.324 485.452 524.691C485.905 524.051 486.132 523.008 486.132 521.561C486.125 520.754 486.022 520.068 485.822 519.501C485.629 518.934 485.322 518.504 484.902 518.211C484.489 517.911 483.939 517.761 483.252 517.761C482.399 517.761 481.705 518.064 481.172 518.671C480.639 519.278 480.372 520.241 480.372 521.561C480.372 522.854 480.612 523.858 481.092 524.571C481.579 525.284 482.285 525.641 483.212 525.641ZM490.617 526.861V524.501H492.817V526.861H490.617ZM498.961 514.101V512.401H509.901V514.101H505.491V526.861H503.631V514.101H498.961ZM511.906 526.861V512.001H513.706V518.041C513.879 517.754 514.113 517.488 514.406 517.241C514.699 516.988 515.056 516.784 515.476 516.631C515.896 516.471 516.383 516.391 516.936 516.391C517.609 516.391 518.219 516.518 518.766 516.771C519.313 517.018 519.746 517.371 520.066 517.831C520.386 518.291 520.546 518.838 520.546 519.471V526.861H518.696V519.841C518.696 519.221 518.483 518.744 518.056 518.411C517.636 518.071 517.086 517.901 516.406 517.901C515.946 517.901 515.513 517.978 515.106 518.131C514.699 518.278 514.369 518.504 514.116 518.811C513.869 519.111 513.746 519.494 513.746 519.961V526.861H511.906ZM524.749 522.121C524.749 522.774 524.856 523.368 525.069 523.901C525.289 524.428 525.619 524.848 526.059 525.161C526.506 525.474 527.063 525.631 527.729 525.631C528.389 525.631 528.956 525.478 529.429 525.171C529.909 524.864 530.216 524.421 530.349 523.841H532.099C531.973 524.541 531.693 525.131 531.259 525.611C530.826 526.091 530.303 526.454 529.689 526.701C529.076 526.941 528.436 527.061 527.769 527.061C526.803 527.061 525.953 526.851 525.219 526.431C524.486 526.011 523.913 525.408 523.499 524.621C523.086 523.834 522.879 522.891 522.879 521.791C522.879 520.704 523.066 519.751 523.439 518.931C523.813 518.111 524.353 517.471 525.059 517.011C525.773 516.551 526.629 516.321 527.629 516.321C528.603 516.321 529.426 516.531 530.099 516.951C530.773 517.371 531.283 517.964 531.629 518.731C531.983 519.491 532.159 520.394 532.159 521.441V522.121H524.749ZM524.759 520.871H530.379C530.379 520.278 530.279 519.744 530.079 519.271C529.879 518.791 529.573 518.414 529.159 518.141C528.753 517.861 528.239 517.721 527.619 517.721C526.973 517.721 526.436 517.878 526.009 518.191C525.589 518.498 525.273 518.894 525.059 519.381C524.853 519.861 524.753 520.358 524.759 520.871ZM187.784 545.871H185.454V552.301C185.454 552.668 185.491 552.938 185.564 553.111C185.644 553.278 185.774 553.384 185.954 553.431C186.141 553.478 186.394 553.501 186.714 553.501H187.844V554.741C187.718 554.788 187.524 554.828 187.264 554.861C187.011 554.894 186.694 554.911 186.314 554.911C185.601 554.911 185.048 554.814 184.654 554.621C184.261 554.428 183.984 554.141 183.824 553.761C183.671 553.381 183.594 552.914 183.594 552.361V545.871H181.914V544.521H183.644L184.094 541.511H185.454V544.511H187.784V545.871ZM194.278 555.061C193.324 555.061 192.491 554.858 191.778 554.451C191.064 554.038 190.511 553.434 190.118 552.641C189.724 551.848 189.528 550.878 189.528 549.731C189.528 548.651 189.711 547.704 190.078 546.891C190.444 546.078 190.981 545.448 191.688 545.001C192.401 544.548 193.264 544.321 194.278 544.321C195.231 544.321 196.058 544.531 196.758 544.951C197.464 545.364 198.011 545.974 198.398 546.781C198.784 547.588 198.978 548.571 198.978 549.731C198.978 550.784 198.798 551.711 198.438 552.511C198.084 553.311 197.558 553.938 196.858 554.391C196.164 554.838 195.304 555.061 194.278 555.061ZM194.278 553.601C194.898 553.601 195.421 553.444 195.848 553.131C196.274 552.818 196.598 552.368 196.818 551.781C197.038 551.194 197.148 550.498 197.148 549.691C197.148 548.951 197.051 548.288 196.858 547.701C196.664 547.108 196.354 546.638 195.928 546.291C195.508 545.944 194.958 545.771 194.278 545.771C193.651 545.771 193.121 545.928 192.688 546.241C192.254 546.548 191.924 546.994 191.698 547.581C191.478 548.168 191.368 548.871 191.368 549.691C191.368 550.418 191.468 551.078 191.668 551.671C191.868 552.264 192.181 552.734 192.608 553.081C193.034 553.428 193.591 553.601 194.278 553.601ZM206.319 545.871H203.989V552.301C203.989 552.668 204.026 552.938 204.099 553.111C204.179 553.278 204.309 553.384 204.489 553.431C204.676 553.478 204.929 553.501 205.249 553.501H206.379V554.741C206.253 554.788 206.059 554.828 205.799 554.861C205.546 554.894 205.229 554.911 204.849 554.911C204.136 554.911 203.583 554.814 203.189 554.621C202.796 554.428 202.519 554.141 202.359 553.761C202.206 553.381 202.129 552.914 202.129 552.361V545.871H200.449V544.521H202.179L202.629 541.511H203.989V544.511H206.319V545.871ZM211.758 555.061C211.091 555.061 210.501 554.944 209.988 554.711C209.475 554.471 209.071 554.128 208.778 553.681C208.491 553.234 208.348 552.694 208.348 552.061C208.348 550.914 208.748 550.061 209.548 549.501C210.348 548.941 211.631 548.641 213.398 548.601L215.248 548.551V547.741C215.248 547.108 215.058 546.608 214.678 546.241C214.298 545.868 213.708 545.681 212.908 545.681C212.315 545.688 211.791 545.828 211.338 546.101C210.891 546.374 210.601 546.821 210.468 547.441H208.838C208.878 546.768 209.068 546.201 209.408 545.741C209.748 545.274 210.221 544.921 210.828 544.681C211.441 544.441 212.165 544.321 212.998 544.321C213.898 544.321 214.645 544.448 215.238 544.701C215.838 544.954 216.285 545.328 216.578 545.821C216.878 546.314 217.028 546.921 217.028 547.641V554.861H215.448L215.318 552.921C214.918 553.728 214.408 554.288 213.788 554.601C213.175 554.908 212.498 555.061 211.758 555.061ZM212.318 553.731C212.665 553.731 213.008 553.668 213.348 553.541C213.695 553.414 214.011 553.244 214.298 553.031C214.585 552.811 214.811 552.568 214.978 552.301C215.151 552.028 215.241 551.748 215.248 551.461V549.691L213.708 549.721C212.921 549.734 212.261 549.814 211.728 549.961C211.201 550.108 210.805 550.338 210.538 550.651C210.278 550.964 210.148 551.374 210.148 551.881C210.148 552.461 210.348 552.914 210.748 553.241C211.155 553.568 211.678 553.731 212.318 553.731ZM222.797 554.991C222.237 554.991 221.784 554.914 221.437 554.761C221.097 554.608 220.834 554.401 220.647 554.141C220.467 553.881 220.344 553.584 220.277 553.251C220.217 552.911 220.187 552.561 220.187 552.201V540.001H222.007V552.021C222.007 552.541 222.107 552.931 222.307 553.191C222.514 553.451 222.801 553.594 223.167 553.621L223.727 553.631V554.831C223.574 554.878 223.414 554.914 223.247 554.941C223.081 554.974 222.931 554.991 222.797 554.991ZM233.614 555.061C232.947 555.061 232.357 554.944 231.844 554.711C231.33 554.471 230.927 554.128 230.634 553.681C230.347 553.234 230.204 552.694 230.204 552.061C230.204 550.914 230.604 550.061 231.404 549.501C232.204 548.941 233.487 548.641 235.254 548.601L237.104 548.551V547.741C237.104 547.108 236.914 546.608 236.534 546.241C236.154 545.868 235.564 545.681 234.764 545.681C234.17 545.688 233.647 545.828 233.194 546.101C232.747 546.374 232.457 546.821 232.324 547.441H230.694C230.734 546.768 230.924 546.201 231.264 545.741C231.604 545.274 232.077 544.921 232.684 544.681C233.297 544.441 234.02 544.321 234.854 544.321C235.754 544.321 236.5 544.448 237.094 544.701C237.694 544.954 238.14 545.328 238.434 545.821C238.734 546.314 238.884 546.921 238.884 547.641V554.861H237.304L237.174 552.921C236.774 553.728 236.264 554.288 235.644 554.601C235.03 554.908 234.354 555.061 233.614 555.061ZM234.174 553.731C234.52 553.731 234.864 553.668 235.204 553.541C235.55 553.414 235.867 553.244 236.154 553.031C236.44 552.811 236.667 552.568 236.834 552.301C237.007 552.028 237.097 551.748 237.104 551.461V549.691L235.564 549.721C234.777 549.734 234.117 549.814 233.584 549.961C233.057 550.108 232.66 550.338 232.394 550.651C232.134 550.964 232.004 551.374 232.004 551.881C232.004 552.461 232.204 552.914 232.604 553.241C233.01 553.568 233.534 553.731 234.174 553.731ZM242.043 554.861V544.521H243.823V546.021C244.109 545.568 244.503 545.171 245.003 544.831C245.503 544.491 246.153 544.321 246.953 544.321C247.326 544.321 247.706 544.384 248.093 544.511C248.486 544.638 248.846 544.828 249.173 545.081C249.499 545.334 249.753 545.644 249.933 546.011C250.253 545.504 250.686 545.098 251.233 544.791C251.779 544.478 252.396 544.321 253.083 544.321C253.443 544.321 253.819 544.378 254.213 544.491C254.606 544.598 254.969 544.791 255.303 545.071C255.643 545.344 255.919 545.728 256.133 546.221C256.346 546.708 256.453 547.334 256.453 548.101V554.861H254.593V548.281C254.593 547.654 254.493 547.171 254.293 546.831C254.093 546.484 253.829 546.241 253.503 546.101C253.183 545.961 252.839 545.891 252.473 545.891C252.153 545.891 251.813 545.954 251.453 546.081C251.093 546.208 250.786 546.421 250.533 546.721C250.279 547.021 250.153 547.431 250.153 547.951V554.861H248.313V547.741C248.313 547.334 248.203 546.994 247.983 546.721C247.769 546.448 247.499 546.241 247.173 546.101C246.853 545.961 246.533 545.891 246.213 545.891C245.859 545.891 245.503 545.961 245.143 546.101C244.789 546.241 244.489 546.464 244.243 546.771C244.003 547.071 243.883 547.464 243.883 547.951V554.861H242.043ZM263.457 555.061C262.504 555.061 261.671 554.858 260.957 554.451C260.244 554.038 259.691 553.434 259.297 552.641C258.904 551.848 258.707 550.878 258.707 549.731C258.707 548.651 258.891 547.704 259.257 546.891C259.624 546.078 260.161 545.448 260.867 545.001C261.581 544.548 262.444 544.321 263.457 544.321C264.411 544.321 265.237 544.531 265.937 544.951C266.644 545.364 267.191 545.974 267.577 546.781C267.964 547.588 268.157 548.571 268.157 549.731C268.157 550.784 267.977 551.711 267.617 552.511C267.264 553.311 266.737 553.938 266.037 554.391C265.344 554.838 264.484 555.061 263.457 555.061ZM263.457 553.601C264.077 553.601 264.601 553.444 265.027 553.131C265.454 552.818 265.777 552.368 265.997 551.781C266.217 551.194 266.327 550.498 266.327 549.691C266.327 548.951 266.231 548.288 266.037 547.701C265.844 547.108 265.534 546.638 265.107 546.291C264.687 545.944 264.137 545.771 263.457 545.771C262.831 545.771 262.301 545.928 261.867 546.241C261.434 546.548 261.104 546.994 260.877 547.581C260.657 548.168 260.547 548.871 260.547 549.691C260.547 550.418 260.647 551.078 260.847 551.671C261.047 552.264 261.361 552.734 261.787 553.081C262.214 553.428 262.771 553.601 263.457 553.601ZM274.202 555.061C273.662 555.054 273.152 554.978 272.672 554.831C272.199 554.678 271.779 554.454 271.412 554.161C271.045 553.868 270.755 553.504 270.542 553.071C270.335 552.631 270.232 552.121 270.232 551.541V544.521H272.082V551.351C272.082 552.024 272.289 552.571 272.702 552.991C273.122 553.411 273.752 553.621 274.592 553.621C275.352 553.621 275.962 553.424 276.422 553.031C276.889 552.631 277.122 552.038 277.122 551.251V544.521H278.962V554.861H277.492L277.302 552.881C277.175 553.401 276.959 553.821 276.652 554.141C276.352 554.461 275.989 554.698 275.562 554.851C275.142 554.998 274.689 555.068 274.202 555.061ZM281.984 554.861V544.521H283.774V546.021C283.941 545.734 284.171 545.464 284.464 545.211C284.764 544.958 285.124 544.754 285.544 544.601C285.971 544.448 286.461 544.371 287.014 544.371C287.667 544.371 288.267 544.501 288.814 544.761C289.367 545.021 289.807 545.428 290.134 545.981C290.467 546.528 290.634 547.234 290.634 548.101V554.861H288.784V548.281C288.784 547.474 288.571 546.878 288.144 546.491C287.724 546.098 287.177 545.901 286.504 545.901C286.037 545.901 285.601 545.978 285.194 546.131C284.787 546.278 284.457 546.504 284.204 546.811C283.951 547.111 283.824 547.491 283.824 547.951V554.861H281.984ZM298.292 545.871H295.962V552.301C295.962 552.668 295.999 552.938 296.072 553.111C296.152 553.278 296.282 553.384 296.462 553.431C296.649 553.478 296.902 553.501 297.222 553.501H298.352V554.741C298.225 554.788 298.032 554.828 297.772 554.861C297.519 554.894 297.202 554.911 296.822 554.911C296.109 554.911 295.555 554.814 295.162 554.621C294.769 554.428 294.492 554.141 294.332 553.761C294.179 553.381 294.102 552.914 294.102 552.361V545.871H292.422V544.521H294.152L294.602 541.511H295.962V544.511H298.292V545.871ZM309.034 555.061C307.694 555.061 306.631 554.601 305.844 553.681C305.058 552.761 304.664 551.418 304.664 549.651C304.664 548.578 304.821 547.641 305.134 546.841C305.454 546.041 305.928 545.421 306.554 544.981C307.181 544.541 307.961 544.321 308.894 544.321C309.388 544.321 309.824 544.384 310.204 544.511C310.591 544.638 310.924 544.798 311.204 544.991C311.484 545.184 311.711 545.384 311.884 545.591C312.064 545.798 312.198 545.988 312.284 546.161V540.001H314.144V554.861H312.734L312.534 552.741C312.468 552.941 312.361 553.174 312.214 553.441C312.068 553.701 311.861 553.958 311.594 554.211C311.328 554.458 310.984 554.661 310.564 554.821C310.151 554.981 309.641 555.061 309.034 555.061ZM309.364 553.641C310.411 553.641 311.158 553.324 311.604 552.691C312.058 552.051 312.284 551.008 312.284 549.561C312.278 548.754 312.174 548.068 311.974 547.501C311.781 546.934 311.474 546.504 311.054 546.211C310.641 545.911 310.091 545.761 309.404 545.761C308.551 545.761 307.858 546.064 307.324 546.671C306.791 547.278 306.524 548.241 306.524 549.561C306.524 550.854 306.764 551.858 307.244 552.571C307.731 553.284 308.438 553.641 309.364 553.641ZM318.519 550.121C318.519 550.774 318.626 551.368 318.839 551.901C319.059 552.428 319.389 552.848 319.829 553.161C320.276 553.474 320.832 553.631 321.499 553.631C322.159 553.631 322.726 553.478 323.199 553.171C323.679 552.864 323.986 552.421 324.119 551.841H325.869C325.742 552.541 325.462 553.131 325.029 553.611C324.596 554.091 324.072 554.454 323.459 554.701C322.846 554.941 322.206 555.061 321.539 555.061C320.572 555.061 319.722 554.851 318.989 554.431C318.256 554.011 317.682 553.408 317.269 552.621C316.856 551.834 316.649 550.891 316.649 549.791C316.649 548.704 316.836 547.751 317.209 546.931C317.582 546.111 318.122 545.471 318.829 545.011C319.542 544.551 320.399 544.321 321.399 544.321C322.372 544.321 323.196 544.531 323.869 544.951C324.542 545.371 325.052 545.964 325.399 546.731C325.752 547.491 325.929 548.394 325.929 549.441V550.121H318.519ZM318.529 548.871H324.149C324.149 548.278 324.049 547.744 323.849 547.271C323.649 546.791 323.342 546.414 322.929 546.141C322.522 545.861 322.009 545.721 321.389 545.721C320.742 545.721 320.206 545.878 319.779 546.191C319.359 546.498 319.042 546.894 318.829 547.381C318.622 547.861 318.522 548.358 318.529 548.871ZM332.198 555.061C330.858 555.061 329.795 554.601 329.008 553.681C328.222 552.761 327.828 551.418 327.828 549.651C327.828 548.578 327.985 547.641 328.298 546.841C328.618 546.041 329.092 545.421 329.718 544.981C330.345 544.541 331.125 544.321 332.058 544.321C332.552 544.321 332.988 544.384 333.368 544.511C333.755 544.638 334.088 544.798 334.368 544.991C334.648 545.184 334.875 545.384 335.048 545.591C335.228 545.798 335.362 545.988 335.448 546.161V540.001H337.308V554.861H335.898L335.698 552.741C335.632 552.941 335.525 553.174 335.378 553.441C335.232 553.701 335.025 553.958 334.758 554.211C334.492 554.458 334.148 554.661 333.728 554.821C333.315 554.981 332.805 555.061 332.198 555.061ZM332.528 553.641C333.575 553.641 334.322 553.324 334.768 552.691C335.222 552.051 335.448 551.008 335.448 549.561C335.442 548.754 335.338 548.068 335.138 547.501C334.945 546.934 334.638 546.504 334.218 546.211C333.805 545.911 333.255 545.761 332.568 545.761C331.715 545.761 331.022 546.064 330.488 546.671C329.955 547.278 329.688 548.241 329.688 549.561C329.688 550.854 329.928 551.858 330.408 552.571C330.895 553.284 331.602 553.641 332.528 553.641ZM344.163 555.061C343.623 555.054 343.113 554.978 342.633 554.831C342.16 554.678 341.74 554.454 341.373 554.161C341.006 553.868 340.716 553.504 340.503 553.071C340.296 552.631 340.193 552.121 340.193 551.541V544.521H342.043V551.351C342.043 552.024 342.25 552.571 342.663 552.991C343.083 553.411 343.713 553.621 344.553 553.621C345.313 553.621 345.923 553.424 346.383 553.031C346.85 552.631 347.083 552.038 347.083 551.251V544.521H348.923V554.861H347.453L347.263 552.881C347.136 553.401 346.92 553.821 346.613 554.141C346.313 554.461 345.95 554.698 345.523 554.851C345.103 554.998 344.65 555.068 344.163 555.061ZM355.928 544.321C356.668 544.321 357.335 544.464 357.928 544.751C358.522 545.031 359.005 545.431 359.378 545.951C359.758 546.471 359.995 547.084 360.088 547.791H358.448C358.388 547.431 358.248 547.101 358.028 546.801C357.815 546.501 357.532 546.261 357.178 546.081C356.825 545.901 356.412 545.811 355.938 545.811C355.052 545.811 354.332 546.131 353.778 546.771C353.225 547.411 352.948 548.391 352.948 549.711C352.948 550.904 353.202 551.861 353.708 552.581C354.222 553.294 354.975 553.651 355.968 553.651C356.442 553.651 356.852 553.561 357.198 553.381C357.552 553.194 357.835 552.951 358.048 552.651C358.262 552.344 358.398 552.018 358.458 551.671H360.068C359.982 552.364 359.748 552.964 359.368 553.471C358.988 553.978 358.502 554.371 357.908 554.651C357.322 554.924 356.662 555.061 355.928 555.061C355.002 555.061 354.178 554.858 353.458 554.451C352.745 554.044 352.185 553.444 351.778 552.651C351.372 551.858 351.168 550.884 351.168 549.731C351.168 548.651 351.352 547.708 351.718 546.901C352.092 546.088 352.632 545.454 353.338 545.001C354.052 544.548 354.915 544.321 355.928 544.321ZM367.511 545.871H365.181V552.301C365.181 552.668 365.217 552.938 365.291 553.111C365.371 553.278 365.501 553.384 365.681 553.431C365.867 553.478 366.121 553.501 366.441 553.501H367.571V554.741C367.444 554.788 367.251 554.828 366.991 554.861C366.737 554.894 366.421 554.911 366.041 554.911C365.327 554.911 364.774 554.814 364.381 554.621C363.987 554.428 363.711 554.141 363.551 553.761C363.397 553.381 363.321 552.914 363.321 552.361V545.871H361.641V544.521H363.371L363.821 541.511H365.181V544.511H367.511V545.871ZM371.214 550.121C371.214 550.774 371.321 551.368 371.534 551.901C371.754 552.428 372.084 552.848 372.524 553.161C372.971 553.474 373.528 553.631 374.194 553.631C374.854 553.631 375.421 553.478 375.894 553.171C376.374 552.864 376.681 552.421 376.814 551.841H378.564C378.438 552.541 378.158 553.131 377.724 553.611C377.291 554.091 376.768 554.454 376.154 554.701C375.541 554.941 374.901 555.061 374.234 555.061C373.268 555.061 372.418 554.851 371.684 554.431C370.951 554.011 370.378 553.408 369.964 552.621C369.551 551.834 369.344 550.891 369.344 549.791C369.344 548.704 369.531 547.751 369.904 546.931C370.278 546.111 370.818 545.471 371.524 545.011C372.238 544.551 373.094 544.321 374.094 544.321C375.068 544.321 375.891 544.531 376.564 544.951C377.238 545.371 377.748 545.964 378.094 546.731C378.448 547.491 378.624 548.394 378.624 549.441V550.121H371.214ZM371.224 548.871H376.844C376.844 548.278 376.744 547.744 376.544 547.271C376.344 546.791 376.038 546.414 375.624 546.141C375.218 545.861 374.704 545.721 374.084 545.721C373.438 545.721 372.901 545.878 372.474 546.191C372.054 546.498 371.738 546.894 371.524 547.381C371.318 547.861 371.218 548.358 371.224 548.871ZM384.894 555.061C383.554 555.061 382.49 554.601 381.704 553.681C380.917 552.761 380.524 551.418 380.524 549.651C380.524 548.578 380.68 547.641 380.994 546.841C381.314 546.041 381.787 545.421 382.414 544.981C383.04 544.541 383.82 544.321 384.754 544.321C385.247 544.321 385.684 544.384 386.064 544.511C386.45 544.638 386.784 544.798 387.064 544.991C387.344 545.184 387.57 545.384 387.744 545.591C387.924 545.798 388.057 545.988 388.144 546.161V540.001H390.004V554.861H388.594L388.394 552.741C388.327 552.941 388.22 553.174 388.074 553.441C387.927 553.701 387.72 553.958 387.454 554.211C387.187 554.458 386.844 554.661 386.424 554.821C386.01 554.981 385.5 555.061 384.894 555.061ZM385.224 553.641C386.27 553.641 387.017 553.324 387.464 552.691C387.917 552.051 388.144 551.008 388.144 549.561C388.137 548.754 388.034 548.068 387.834 547.501C387.64 546.934 387.334 546.504 386.914 546.211C386.5 545.911 385.95 545.761 385.264 545.761C384.41 545.761 383.717 546.064 383.184 546.671C382.65 547.278 382.384 548.241 382.384 549.561C382.384 550.854 382.624 551.858 383.104 552.571C383.59 553.284 384.297 553.641 385.224 553.641ZM403.508 544.521V545.871H400.998V554.861H399.138V545.871H396.958V544.521H399.138V542.921C399.138 542.101 399.348 541.478 399.768 541.051C400.188 540.618 400.814 540.401 401.648 540.401H403.598L403.608 541.711H402.058C401.638 541.711 401.351 541.824 401.198 542.051C401.044 542.278 400.968 542.621 400.968 543.081V544.521H403.508ZM405.793 554.861V544.521H407.553V546.511C407.726 546.018 407.969 545.611 408.283 545.291C408.596 544.964 408.953 544.721 409.353 544.561C409.759 544.401 410.179 544.321 410.613 544.321C410.766 544.321 410.916 544.331 411.063 544.351C411.209 544.371 411.323 544.404 411.403 544.451V546.241C411.303 546.194 411.173 546.164 411.013 546.151C410.859 546.131 410.729 546.121 410.623 546.121C410.209 546.094 409.823 546.121 409.463 546.201C409.103 546.274 408.786 546.404 408.513 546.591C408.239 546.778 408.023 547.024 407.863 547.331C407.709 547.631 407.633 547.998 407.633 548.431V554.861H405.793ZM417.422 555.061C416.469 555.061 415.636 554.858 414.922 554.451C414.209 554.038 413.656 553.434 413.262 552.641C412.869 551.848 412.672 550.878 412.672 549.731C412.672 548.651 412.856 547.704 413.222 546.891C413.589 546.078 414.126 545.448 414.832 545.001C415.546 544.548 416.409 544.321 417.422 544.321C418.376 544.321 419.202 544.531 419.902 544.951C420.609 545.364 421.156 545.974 421.542 546.781C421.929 547.588 422.122 548.571 422.122 549.731C422.122 550.784 421.942 551.711 421.582 552.511C421.229 553.311 420.702 553.938 420.002 554.391C419.309 554.838 418.449 555.061 417.422 555.061ZM417.422 553.601C418.042 553.601 418.566 553.444 418.992 553.131C419.419 552.818 419.742 552.368 419.962 551.781C420.182 551.194 420.292 550.498 420.292 549.691C420.292 548.951 420.196 548.288 420.002 547.701C419.809 547.108 419.499 546.638 419.072 546.291C418.652 545.944 418.102 545.771 417.422 545.771C416.796 545.771 416.266 545.928 415.832 546.241C415.399 546.548 415.069 546.994 414.842 547.581C414.622 548.168 414.512 548.871 414.512 549.691C414.512 550.418 414.612 551.078 414.812 551.671C415.012 552.264 415.326 552.734 415.752 553.081C416.179 553.428 416.736 553.601 417.422 553.601ZM424.543 554.861V544.521H426.323V546.021C426.609 545.568 427.003 545.171 427.503 544.831C428.003 544.491 428.653 544.321 429.453 544.321C429.826 544.321 430.206 544.384 430.593 544.511C430.986 544.638 431.346 544.828 431.673 545.081C431.999 545.334 432.253 545.644 432.433 546.011C432.753 545.504 433.186 545.098 433.733 544.791C434.279 544.478 434.896 544.321 435.583 544.321C435.943 544.321 436.319 544.378 436.713 544.491C437.106 544.598 437.469 544.791 437.803 545.071C438.143 545.344 438.419 545.728 438.633 546.221C438.846 546.708 438.953 547.334 438.953 548.101V554.861H437.093V548.281C437.093 547.654 436.993 547.171 436.793 546.831C436.593 546.484 436.329 546.241 436.003 546.101C435.683 545.961 435.339 545.891 434.973 545.891C434.653 545.891 434.313 545.954 433.953 546.081C433.593 546.208 433.286 546.421 433.033 546.721C432.779 547.021 432.653 547.431 432.653 547.951V554.861H430.813V547.741C430.813 547.334 430.703 546.994 430.483 546.721C430.269 546.448 429.999 546.241 429.673 546.101C429.353 545.961 429.033 545.891 428.713 545.891C428.359 545.891 428.003 545.961 427.643 546.101C427.289 546.241 426.989 546.464 426.743 546.771C426.503 547.071 426.383 547.464 426.383 547.951V554.861H424.543ZM447.34 558.161C446.733 558.161 446.317 558.118 446.09 558.031C445.863 557.944 445.75 557.901 445.75 557.901V556.701L446.8 556.721C447.187 556.734 447.507 556.708 447.76 556.641C448.013 556.574 448.217 556.484 448.37 556.371C448.523 556.258 448.64 556.131 448.72 555.991C448.807 555.851 448.877 555.718 448.93 555.591L449.29 554.611L445.25 544.521H447.12L450.17 552.501L453.2 544.521H455.01L450.65 555.641C450.383 556.294 450.083 556.804 449.75 557.171C449.423 557.538 449.057 557.794 448.65 557.941C448.25 558.088 447.813 558.161 447.34 558.161ZM460.723 555.061C459.77 555.061 458.936 554.858 458.223 554.451C457.51 554.038 456.956 553.434 456.563 552.641C456.17 551.848 455.973 550.878 455.973 549.731C455.973 548.651 456.156 547.704 456.523 546.891C456.89 546.078 457.426 545.448 458.133 545.001C458.846 544.548 459.71 544.321 460.723 544.321C461.676 544.321 462.503 544.531 463.203 544.951C463.91 545.364 464.456 545.974 464.843 546.781C465.23 547.588 465.423 548.571 465.423 549.731C465.423 550.784 465.243 551.711 464.883 552.511C464.53 553.311 464.003 553.938 463.303 554.391C462.61 554.838 461.75 555.061 460.723 555.061ZM460.723 553.601C461.343 553.601 461.866 553.444 462.293 553.131C462.72 552.818 463.043 552.368 463.263 551.781C463.483 551.194 463.593 550.498 463.593 549.691C463.593 548.951 463.496 548.288 463.303 547.701C463.11 547.108 462.8 546.638 462.373 546.291C461.953 545.944 461.403 545.771 460.723 545.771C460.096 545.771 459.566 545.928 459.133 546.241C458.7 546.548 458.37 546.994 458.143 547.581C457.923 548.168 457.813 548.871 457.813 549.691C457.813 550.418 457.913 551.078 458.113 551.671C458.313 552.264 458.626 552.734 459.053 553.081C459.48 553.428 460.036 553.601 460.723 553.601ZM471.468 555.061C470.928 555.054 470.418 554.978 469.938 554.831C469.464 554.678 469.044 554.454 468.678 554.161C468.311 553.868 468.021 553.504 467.808 553.071C467.601 552.631 467.498 552.121 467.498 551.541V544.521H469.348V551.351C469.348 552.024 469.554 552.571 469.968 552.991C470.388 553.411 471.018 553.621 471.858 553.621C472.618 553.621 473.228 553.424 473.688 553.031C474.154 552.631 474.388 552.038 474.388 551.251V544.521H476.228V554.861H474.758L474.568 552.881C474.441 553.401 474.224 553.821 473.918 554.141C473.618 554.461 473.254 554.698 472.828 554.851C472.408 554.998 471.954 555.068 471.468 555.061ZM479.25 554.861V544.521H481.01V546.511C481.183 546.018 481.426 545.611 481.74 545.291C482.053 544.964 482.41 544.721 482.81 544.561C483.216 544.401 483.636 544.321 484.07 544.321C484.223 544.321 484.373 544.331 484.52 544.351C484.666 544.371 484.78 544.404 484.86 544.451V546.241C484.76 546.194 484.63 546.164 484.47 546.151C484.316 546.131 484.186 546.121 484.08 546.121C483.666 546.094 483.28 546.121 482.92 546.201C482.56 546.274 482.243 546.404 481.97 546.591C481.696 546.778 481.48 547.024 481.32 547.331C481.166 547.631 481.09 547.998 481.09 548.431V554.861H479.25ZM185.254 583.061C184.588 583.061 183.998 582.944 183.484 582.711C182.971 582.471 182.568 582.128 182.274 581.681C181.988 581.234 181.844 580.694 181.844 580.061C181.844 578.914 182.244 578.061 183.044 577.501C183.844 576.941 185.128 576.641 186.894 576.601L188.744 576.551V575.741C188.744 575.108 188.554 574.608 188.174 574.241C187.794 573.868 187.204 573.681 186.404 573.681C185.811 573.688 185.288 573.828 184.834 574.101C184.388 574.374 184.098 574.821 183.964 575.441H182.334C182.374 574.768 182.564 574.201 182.904 573.741C183.244 573.274 183.718 572.921 184.324 572.681C184.938 572.441 185.661 572.321 186.494 572.321C187.394 572.321 188.141 572.448 188.734 572.701C189.334 572.954 189.781 573.328 190.074 573.821C190.374 574.314 190.524 574.921 190.524 575.641V582.861H188.944L188.814 580.921C188.414 581.728 187.904 582.288 187.284 582.601C186.671 582.908 185.994 583.061 185.254 583.061ZM185.814 581.731C186.161 581.731 186.504 581.668 186.844 581.541C187.191 581.414 187.508 581.244 187.794 581.031C188.081 580.811 188.308 580.568 188.474 580.301C188.648 580.028 188.738 579.748 188.744 579.461V577.691L187.204 577.721C186.418 577.734 185.758 577.814 185.224 577.961C184.698 578.108 184.301 578.338 184.034 578.651C183.774 578.964 183.644 579.374 183.644 579.881C183.644 580.461 183.844 580.914 184.244 581.241C184.651 581.568 185.174 581.731 185.814 581.731ZM197.803 572.321C198.543 572.321 199.21 572.464 199.803 572.751C200.397 573.031 200.88 573.431 201.253 573.951C201.633 574.471 201.87 575.084 201.963 575.791H200.323C200.263 575.431 200.123 575.101 199.903 574.801C199.69 574.501 199.407 574.261 199.053 574.081C198.7 573.901 198.287 573.811 197.813 573.811C196.927 573.811 196.207 574.131 195.653 574.771C195.1 575.411 194.823 576.391 194.823 577.711C194.823 578.904 195.077 579.861 195.583 580.581C196.097 581.294 196.85 581.651 197.843 581.651C198.317 581.651 198.727 581.561 199.073 581.381C199.427 581.194 199.71 580.951 199.923 580.651C200.137 580.344 200.273 580.018 200.333 579.671H201.943C201.857 580.364 201.623 580.964 201.243 581.471C200.863 581.978 200.377 582.371 199.783 582.651C199.197 582.924 198.537 583.061 197.803 583.061C196.877 583.061 196.053 582.858 195.333 582.451C194.62 582.044 194.06 581.444 193.653 580.651C193.247 579.858 193.043 578.884 193.043 577.731C193.043 576.651 193.227 575.708 193.593 574.901C193.967 574.088 194.507 573.454 195.213 573.001C195.927 572.548 196.79 572.321 197.803 572.321ZM208.585 572.321C209.325 572.321 209.991 572.464 210.585 572.751C211.178 573.031 211.661 573.431 212.035 573.951C212.415 574.471 212.651 575.084 212.745 575.791H211.105C211.045 575.431 210.905 575.101 210.685 574.801C210.471 574.501 210.188 574.261 209.835 574.081C209.481 573.901 209.068 573.811 208.595 573.811C207.708 573.811 206.988 574.131 206.435 574.771C205.881 575.411 205.605 576.391 205.605 577.711C205.605 578.904 205.858 579.861 206.365 580.581C206.878 581.294 207.631 581.651 208.625 581.651C209.098 581.651 209.508 581.561 209.855 581.381C210.208 581.194 210.491 580.951 210.705 580.651C210.918 580.344 211.055 580.018 211.115 579.671H212.725C212.638 580.364 212.405 580.964 212.025 581.471C211.645 581.978 211.158 582.371 210.565 582.651C209.978 582.924 209.318 583.061 208.585 583.061C207.658 583.061 206.835 582.858 206.115 582.451C205.401 582.044 204.841 581.444 204.435 580.651C204.028 579.858 203.825 578.884 203.825 577.731C203.825 576.651 204.008 575.708 204.375 574.901C204.748 574.088 205.288 573.454 205.995 573.001C206.708 572.548 207.571 572.321 208.585 572.321ZM219.356 583.061C218.402 583.061 217.569 582.858 216.856 582.451C216.142 582.038 215.589 581.434 215.196 580.641C214.802 579.848 214.606 578.878 214.606 577.731C214.606 576.651 214.789 575.704 215.156 574.891C215.522 574.078 216.059 573.448 216.766 573.001C217.479 572.548 218.342 572.321 219.356 572.321C220.309 572.321 221.136 572.531 221.836 572.951C222.542 573.364 223.089 573.974 223.476 574.781C223.862 575.588 224.056 576.571 224.056 577.731C224.056 578.784 223.876 579.711 223.516 580.511C223.162 581.311 222.636 581.938 221.936 582.391C221.242 582.838 220.382 583.061 219.356 583.061ZM219.356 581.601C219.976 581.601 220.499 581.444 220.926 581.131C221.352 580.818 221.676 580.368 221.896 579.781C222.116 579.194 222.226 578.498 222.226 577.691C222.226 576.951 222.129 576.288 221.936 575.701C221.742 575.108 221.432 574.638 221.006 574.291C220.586 573.944 220.036 573.771 219.356 573.771C218.729 573.771 218.199 573.928 217.766 574.241C217.332 574.548 217.002 574.994 216.776 575.581C216.556 576.168 216.446 576.871 216.446 577.691C216.446 578.418 216.546 579.078 216.746 579.671C216.946 580.264 217.259 580.734 217.686 581.081C218.112 581.428 218.669 581.601 219.356 581.601ZM230.101 583.061C229.561 583.054 229.051 582.978 228.571 582.831C228.097 582.678 227.677 582.454 227.311 582.161C226.944 581.868 226.654 581.504 226.441 581.071C226.234 580.631 226.131 580.121 226.131 579.541V572.521H227.981V579.351C227.981 580.024 228.187 580.571 228.601 580.991C229.021 581.411 229.651 581.621 230.491 581.621C231.251 581.621 231.861 581.424 232.321 581.031C232.787 580.631 233.021 580.038 233.021 579.251V572.521H234.861V582.861H233.391L233.201 580.881C233.074 581.401 232.857 581.821 232.551 582.141C232.251 582.461 231.887 582.698 231.461 582.851C231.041 582.998 230.587 583.068 230.101 583.061ZM237.883 582.861V572.521H239.673V574.021C239.839 573.734 240.069 573.464 240.363 573.211C240.663 572.958 241.023 572.754 241.443 572.601C241.869 572.448 242.359 572.371 242.913 572.371C243.566 572.371 244.166 572.501 244.713 572.761C245.266 573.021 245.706 573.428 246.033 573.981C246.366 574.528 246.533 575.234 246.533 576.101V582.861H244.683V576.281C244.683 575.474 244.469 574.878 244.043 574.491C243.623 574.098 243.076 573.901 242.403 573.901C241.936 573.901 241.499 573.978 241.093 574.131C240.686 574.278 240.356 574.504 240.103 574.811C239.849 575.111 239.723 575.491 239.723 575.951V582.861H237.883ZM254.191 573.871H251.861V580.301C251.861 580.668 251.897 580.938 251.971 581.111C252.051 581.278 252.181 581.384 252.361 581.431C252.547 581.478 252.801 581.501 253.121 581.501H254.251V582.741C254.124 582.788 253.931 582.828 253.671 582.861C253.417 582.894 253.101 582.911 252.721 582.911C252.007 582.911 251.454 582.814 251.061 582.621C250.667 582.428 250.391 582.141 250.231 581.761C250.077 581.381 250.001 580.914 250.001 580.361V573.871H248.321V572.521H250.051L250.501 569.511H251.861V572.511H254.191V573.871ZM263.457 572.521V582.861H261.667V572.521H263.457ZM263.497 568.411V570.331H261.607V568.411H263.497ZM270.381 583.061C269.661 583.061 268.991 582.951 268.371 582.731C267.757 582.504 267.247 582.154 266.841 581.681C266.434 581.201 266.177 580.591 266.071 579.851H267.751C267.844 580.258 268.011 580.598 268.251 580.871C268.497 581.138 268.804 581.341 269.171 581.481C269.537 581.614 269.937 581.681 270.371 581.681C271.064 581.681 271.624 581.551 272.051 581.291C272.477 581.031 272.691 580.631 272.691 580.091C272.691 579.711 272.577 579.408 272.351 579.181C272.131 578.948 271.787 578.778 271.321 578.671L269.181 578.141C268.347 577.941 267.681 577.628 267.181 577.201C266.681 576.774 266.431 576.178 266.431 575.411C266.424 574.804 266.567 574.271 266.861 573.811C267.154 573.351 267.594 572.988 268.181 572.721C268.767 572.454 269.497 572.321 270.371 572.321C271.491 572.321 272.394 572.574 273.081 573.081C273.774 573.581 274.134 574.318 274.161 575.291H272.531C272.464 574.798 272.241 574.408 271.861 574.121C271.487 573.828 270.984 573.681 270.351 573.681C269.691 573.681 269.154 573.814 268.741 574.081C268.327 574.341 268.121 574.748 268.121 575.301C268.121 575.668 268.267 575.958 268.561 576.171C268.854 576.378 269.287 576.551 269.861 576.691L271.931 577.211C272.411 577.338 272.804 577.504 273.111 577.711C273.424 577.918 273.671 578.148 273.851 578.401C274.037 578.654 274.167 578.921 274.241 579.201C274.321 579.474 274.361 579.738 274.361 579.991C274.361 580.624 274.201 581.171 273.881 581.631C273.567 582.084 273.114 582.438 272.521 582.691C271.934 582.938 271.221 583.061 270.381 583.061ZM292.843 577.351C292.843 578.518 292.653 579.531 292.273 580.391C291.893 581.244 291.277 581.904 290.423 582.371C289.577 582.831 288.453 583.061 287.053 583.061C285.647 583.061 284.52 582.828 283.673 582.361C282.827 581.888 282.213 581.218 281.833 580.351C281.46 579.484 281.273 578.451 281.273 577.251V568.401H284.243V577.471C284.243 578.551 284.503 579.341 285.023 579.841C285.543 580.334 286.22 580.581 287.053 580.581C287.607 580.581 288.097 580.474 288.523 580.261C288.95 580.041 289.283 579.704 289.523 579.251C289.77 578.791 289.893 578.198 289.893 577.471V568.401H292.843V577.351ZM301.176 583.061C300.463 583.061 299.763 582.971 299.076 582.791C298.389 582.611 297.763 582.341 297.196 581.981C296.629 581.621 296.159 581.171 295.786 580.631C295.419 580.091 295.199 579.458 295.126 578.731H298.116C298.216 579.171 298.406 579.541 298.686 579.841C298.966 580.141 299.319 580.371 299.746 580.531C300.173 580.691 300.646 580.771 301.166 580.771C301.699 580.771 302.186 580.704 302.626 580.571C303.066 580.438 303.419 580.238 303.686 579.971C303.953 579.698 304.086 579.358 304.086 578.951C304.086 578.584 303.976 578.284 303.756 578.051C303.543 577.818 303.253 577.628 302.886 577.481C302.519 577.334 302.103 577.214 301.636 577.121L299.136 576.611C298.043 576.404 297.176 575.971 296.536 575.311C295.896 574.644 295.566 573.758 295.546 572.651C295.539 571.744 295.779 570.961 296.266 570.301C296.759 569.634 297.426 569.121 298.266 568.761C299.113 568.401 300.059 568.221 301.106 568.221C302.353 568.221 303.399 568.418 304.246 568.811C305.099 569.198 305.746 569.724 306.186 570.391C306.633 571.051 306.863 571.788 306.876 572.601H303.946C303.893 572.094 303.739 571.691 303.486 571.391C303.233 571.091 302.906 570.874 302.506 570.741C302.113 570.608 301.663 570.541 301.156 570.541C300.769 570.541 300.416 570.584 300.096 570.671C299.783 570.758 299.516 570.881 299.296 571.041C299.076 571.194 298.906 571.378 298.786 571.591C298.666 571.804 298.606 572.044 298.606 572.311C298.606 572.731 298.746 573.071 299.026 573.331C299.306 573.591 299.829 573.804 300.596 573.971L303.076 574.481C303.963 574.654 304.666 574.911 305.186 575.251C305.713 575.591 306.106 575.974 306.366 576.401C306.633 576.828 306.806 577.264 306.886 577.711C306.973 578.151 307.016 578.558 307.016 578.931C307.016 579.711 306.769 580.414 306.276 581.041C305.789 581.661 305.109 582.154 304.236 582.521C303.363 582.881 302.343 583.061 301.176 583.061ZM319.301 583.061C317.568 583.061 316.161 582.714 315.081 582.021C314.001 581.321 313.381 580.244 313.221 578.791L316.261 578.731C316.421 579.391 316.765 579.894 317.291 580.241C317.825 580.581 318.491 580.751 319.291 580.751C319.771 580.751 320.195 580.674 320.561 580.521C320.935 580.361 321.228 580.148 321.441 579.881C321.655 579.608 321.761 579.298 321.761 578.951C321.761 578.418 321.591 578.021 321.251 577.761C320.911 577.494 320.388 577.281 319.681 577.121L317.311 576.611C316.211 576.391 315.328 575.954 314.661 575.301C314.001 574.641 313.665 573.758 313.651 572.651C313.645 571.744 313.888 570.961 314.381 570.301C314.881 569.634 315.558 569.121 316.411 568.761C317.271 568.401 318.235 568.221 319.301 568.221C320.395 568.221 321.338 568.418 322.131 568.811C322.931 569.198 323.545 569.721 323.971 570.381C324.405 571.034 324.615 571.758 324.601 572.551L321.651 572.601C321.558 571.961 321.345 571.458 321.011 571.091C320.678 570.724 320.125 570.541 319.351 570.541C318.951 570.541 318.595 570.584 318.281 570.671C317.968 570.758 317.698 570.881 317.471 571.041C317.245 571.194 317.071 571.378 316.951 571.591C316.838 571.804 316.781 572.044 316.781 572.311C316.781 572.731 316.921 573.064 317.201 573.311C317.488 573.551 318.025 573.774 318.811 573.981L321.141 574.551C322.455 574.864 323.401 575.401 323.981 576.161C324.568 576.921 324.861 577.844 324.861 578.931C324.861 579.764 324.631 580.491 324.171 581.111C323.718 581.731 323.075 582.211 322.241 582.551C321.408 582.891 320.428 583.061 319.301 583.061ZM318.051 566.331H320.581V568.931H318.051V566.331ZM318.001 582.171H320.521V584.771H318.001V582.171ZM329.285 582.861V572.031H326.705V570.381C327.531 570.381 328.198 570.304 328.705 570.151C329.218 569.991 329.601 569.764 329.855 569.471C330.108 569.171 330.258 568.814 330.305 568.401H332.245V582.861H329.285ZM340.859 568.201C342.579 568.201 343.936 568.844 344.929 570.131C345.923 571.411 346.419 573.254 346.419 575.661C346.419 578.054 345.929 579.891 344.949 581.171C343.969 582.444 342.606 583.081 340.859 583.081C339.106 583.081 337.736 582.444 336.749 581.171C335.769 579.898 335.279 578.064 335.279 575.671C335.279 574.071 335.506 572.714 335.959 571.601C336.413 570.488 337.056 569.644 337.889 569.071C338.723 568.491 339.713 568.201 340.859 568.201ZM340.859 580.691C341.719 580.691 342.349 580.308 342.749 579.541C343.149 578.768 343.349 577.478 343.349 575.671C343.349 573.824 343.146 572.501 342.739 571.701C342.333 570.901 341.703 570.501 340.849 570.501C339.996 570.501 339.359 570.904 338.939 571.711C338.526 572.518 338.319 573.838 338.319 575.671C338.319 577.471 338.526 578.758 338.939 579.531C339.353 580.304 339.993 580.691 340.859 580.691ZM354.662 568.401H357.532V577.211H359.762V579.661H357.532V582.861H354.722L354.732 579.661H348.072V577.261L354.662 568.401ZM350.772 577.211H354.732V571.911L350.772 577.211ZM361.327 582.861V579.681H364.527V582.861H361.327ZM371.918 583.081C371.018 583.081 370.178 582.908 369.398 582.561C368.618 582.214 367.981 581.728 367.488 581.101C366.994 580.468 366.718 579.728 366.658 578.881H369.438C369.558 579.441 369.824 579.898 370.238 580.251C370.651 580.598 371.171 580.771 371.798 580.771C372.491 580.771 373.098 580.608 373.618 580.281C374.144 579.954 374.538 579.434 374.798 578.721C375.064 578.008 375.158 577.074 375.078 575.921C374.891 576.274 374.631 576.584 374.298 576.851C373.971 577.111 373.588 577.314 373.148 577.461C372.708 577.601 372.218 577.671 371.678 577.671C370.698 577.671 369.828 577.488 369.068 577.121C368.314 576.748 367.721 576.221 367.288 575.541C366.861 574.854 366.648 574.041 366.648 573.101C366.648 572.154 366.874 571.311 367.328 570.571C367.781 569.831 368.414 569.251 369.228 568.831C370.041 568.411 370.994 568.201 372.088 568.201C373.314 568.201 374.371 568.494 375.258 569.081C376.151 569.661 376.834 570.488 377.308 571.561C377.788 572.628 378.028 573.884 378.028 575.331C378.028 577.058 377.781 578.498 377.288 579.651C376.801 580.798 376.101 581.658 375.188 582.231C374.274 582.798 373.184 583.081 371.918 583.081ZM372.178 575.351C372.584 575.351 372.978 575.261 373.358 575.081C373.744 574.894 374.061 574.661 374.308 574.381C374.554 574.101 374.678 573.811 374.678 573.511C374.684 572.864 374.581 572.311 374.368 571.851C374.161 571.384 373.868 571.028 373.488 570.781C373.114 570.534 372.678 570.411 372.178 570.411C371.718 570.411 371.308 570.518 370.948 570.731C370.588 570.944 370.304 571.244 370.098 571.631C369.891 572.018 369.788 572.464 369.788 572.971C369.788 573.724 370.008 574.311 370.448 574.731C370.888 575.144 371.464 575.351 372.178 575.351ZM385.313 568.201C387.033 568.201 388.389 568.844 389.383 570.131C390.376 571.411 390.873 573.254 390.873 575.661C390.873 578.054 390.383 579.891 389.403 581.171C388.423 582.444 387.059 583.081 385.313 583.081C383.559 583.081 382.189 582.444 381.203 581.171C380.223 579.898 379.733 578.064 379.733 575.671C379.733 574.071 379.959 572.714 380.413 571.601C380.866 570.488 381.509 569.644 382.343 569.071C383.176 568.491 384.166 568.201 385.313 568.201ZM385.313 580.691C386.173 580.691 386.803 580.308 387.203 579.541C387.603 578.768 387.803 577.478 387.803 575.671C387.803 573.824 387.599 572.501 387.193 571.701C386.786 570.901 386.156 570.501 385.303 570.501C384.449 570.501 383.813 570.904 383.393 571.711C382.979 572.518 382.773 573.838 382.773 575.671C382.773 577.471 382.979 578.758 383.393 579.531C383.806 580.304 384.446 580.691 385.313 580.691ZM392.843 582.861V580.501H395.043V582.861H392.843Z" fill="#36536B"/>
</g>
</g>
<defs>
<filter id="filter0_d_0_4910" x="0" y="0" width="835.299" height="1317.72" filterUnits="userSpaceOnUse" color-interpolation-filters="sRGB">
<feFlood flood-opacity="0" result="BackgroundImageFix"/>
<feColorMatrix in="SourceAlpha" type="matrix" values="0 0 0 0 0 0 0 0 0 0 0 0 0 0 0 0 0 0 127 0" result="hardAlpha"/>
<feOffset dx="25" dy="25"/>
<feGaussianBlur stdDeviation="40"/>
<feColorMatrix type="matrix" values="0 0 0 0 0.212302 0 0 0 0 0.32521 0 0 0 0 0.419299 0 0 0 0.300727 0"/>
<feBlend mode="normal" in2="BackgroundImageFix" result="effect1_dropShadow_0_4910"/>
<feBlend mode="normal" in="SourceGraphic" in2="effect1_dropShadow_0_4910" result="shape"/>
</filter>
<filter id="filter1_d_0_4910" x="138.864" y="432.861" width="496" height="234" filterUnits="userSpaceOnUse" color-interpolation-filters="sRGB">
<feFlood flood-opacity="0" result="BackgroundImageFix"/>
<feColorMatrix in="SourceAlpha" type="matrix" values="0 0 0 0 0 0 0 0 0 0 0 0 0 0 0 0 0 0 127 0" result="hardAlpha"/>
<feMorphology radius="10" operator="erode" in="SourceAlpha" result="effect1_dropShadow_0_4910"/>
<feOffset dx="10" dy="10"/>
<feGaussianBlur stdDeviation="12.5"/>
<feColorMatrix type="matrix" values="0 0 0 0 0.212302 0 0 0 0 0.32521 0 0 0 0 0.419299 0 0 0 0.25 0"/>
<feBlend mode="normal" in2="BackgroundImageFix" result="effect1_dropShadow_0_4910"/>
<feBlend mode="normal" in="SourceGraphic" in2="effect1_dropShadow_0_4910" result="shape"/>
</filter>
<linearGradient id="paint0_linear_0_4910" x1="124.894" y1="108.861" x2="124.894" y2="133.509" gradientUnits="userSpaceOnUse">
<stop stop-color="#454545"/>
<stop offset="0.226279" stop-color="#999999"/>
<stop offset="1" stop-color="white"/>
</linearGradient>
<linearGradient id="paint1_linear_0_4910" x1="625.071" y1="280.356" x2="606.149" y2="280.356" gradientUnits="userSpaceOnUse">
<stop stop-color="white" stop-opacity="0.01"/>
<stop offset="0.222178" stop-color="#BABABA"/>
<stop offset="0.54678" stop-color="white" stop-opacity="0.01"/>
<stop offset="1" stop-color="white" stop-opacity="0.01"/>
</linearGradient>
<linearGradient id="paint2_linear_0_4910" x1="110" y1="279.835" x2="128.952" y2="279.835" gradientUnits="userSpaceOnUse">
<stop stop-color="white" stop-opacity="0.01"/>
<stop offset="0.222178" stop-color="#BABABA"/>
<stop offset="0.54678" stop-color="white" stop-opacity="0.01"/>
<stop offset="1" stop-color="white" stop-opacity="0.01"/>
</linearGradient>
<linearGradient id="paint3_linear_0_4910" x1="136.678" y1="133.75" x2="136.678" y2="1056.51" gradientUnits="userSpaceOnUse">
<stop stop-color="#9CB6CD"/>
<stop offset="0.420564" stop-color="#9AB3CA"/>
<stop offset="0.716592" stop-color="#557496"/>
<stop offset="1" stop-color="#475178"/>
</linearGradient>
<clipPath id="clip0_0_4910">
<rect width="233" height="465" fill="white" transform="matrix(2 0 0 2 135.013 133.75)"/>
</clipPath>
<clipPath id="clip1_0_4910">
<rect width="218" height="87" fill="white" transform="matrix(2 0 0 2 148.864 442.861)"/>
</clipPath>
<clipPath id="clip2_0_4910">
<rect width="187" height="11" fill="white" transform="matrix(2 0 0 2 180.864 474.861)"/>
</clipPath>
</defs>
</svg>
